solid Robochera
facet normal -7.762932135335632e-10 -7.818886829759866e-29 -1.0
  outer loop
    vertex -13.00000011864121 -780.0000000000002 0.9999999957712081
    vertex -8.000000118641445 -820.0000000000001 0.9999999918897421
    vertex -13.000000118641449 -820.0000000000001 0.9999999957712081
  endloop
endfacet
facet normal -7.762932135335632e-10 -7.818886829759866e-29 -1.0
  outer loop
    vertex -8.000000118641445 -820.0000000000001 0.9999999918897421
    vertex -13.00000011864121 -780.0000000000002 0.9999999957712081
    vertex -8.000000118641207 -780.0000000000002 0.9999999918897421
  endloop
endfacet
facet normal 7.762932135335632e-10 4.3543425529999944e-29 1.0
  outer loop
    vertex -8.000000112431048 -820.0000000000001 8.99999999188974
    vertex -13.00000011243098 -780.0000000000002 8.99999999577121
    vertex -13.000000112431048 -820.0000000000001 8.99999999577121
  endloop
endfacet
facet normal 7.762932135335632e-10 4.3543425529999944e-29 1.0
  outer loop
    vertex -13.00000011243098 -780.0000000000002 8.99999999577121
    vertex -8.000000112431048 -820.0000000000001 8.99999999188974
    vertex -8.00000011243098 -780.0000000000002 8.99999999188974
  endloop
endfacet
facet normal 3.4290792427782544e-15 1.0 -2.6619744936041354e-24
  outer loop
    vertex -13.00000011243098 -780.0000000000002 8.99999999577121
    vertex -8.000000118641207 -780.0000000000002 0.9999999918897421
    vertex -13.00000011864121 -780.0000000000002 0.9999999957712081
  endloop
endfacet
facet normal 3.4290792427782544e-15 1.0 -2.6619744936041354e-24
  outer loop
    vertex -8.000000118641207 -780.0000000000002 0.9999999918897421
    vertex -13.00000011243098 -780.0000000000002 8.99999999577121
    vertex -8.00000011243098 -780.0000000000002 8.99999999188974
  endloop
endfacet
facet normal -1.1636628575720046e-29 -1.0 4.354342553903338e-29
  outer loop
    vertex -8.000000118641445 -820.0000000000001 0.9999999918897421
    vertex -13.000000117088842 -820.0000000000001 2.9999999957712054
    vertex -13.000000118641449 -820.0000000000001 0.9999999957712081
  endloop
endfacet
facet normal -1.1636628575720046e-29 -1.0 4.354342553903338e-29
  outer loop
    vertex -13.000000117088842 -820.0000000000001 2.9999999957712054
    vertex -8.000000118641445 -820.0000000000001 0.9999999918897421
    vertex -8.000000112431048 -820.0000000000001 8.99999999188974
  endloop
endfacet
facet normal -1.1636628575720046e-29 -1.0 4.354342553903338e-29
  outer loop
    vertex -13.000000117088842 -820.0000000000001 2.9999999957712054
    vertex -8.000000112431048 -820.0000000000001 8.99999999188974
    vertex -14.000000117088844 -820.0000000000001 2.999999996547504
  endloop
endfacet
facet normal -1.1636628575720046e-29 -1.0 4.354342553903338e-29
  outer loop
    vertex -14.000000117088844 -820.0000000000001 2.999999996547504
    vertex -8.000000112431048 -820.0000000000001 8.99999999188974
    vertex -13.000000113983651 -820.0000000000001 6.999999995771202
  endloop
endfacet
facet normal -1.1636628575720046e-29 -1.0 4.354342553903338e-29
  outer loop
    vertex -13.000000113983651 -820.0000000000001 6.999999995771202
    vertex -8.000000112431048 -820.0000000000001 8.99999999188974
    vertex -13.000000112431048 -820.0000000000001 8.99999999577121
  endloop
endfacet
facet normal -1.1636628575720046e-29 -1.0 4.354342553903338e-29
  outer loop
    vertex -14.000000113983651 -820.0000000000001 6.9999999965475
    vertex -14.000000117088844 -820.0000000000001 2.999999996547504
    vertex -13.000000113983651 -820.0000000000001 6.999999995771202
  endloop
endfacet
facet normal -0.6087614290086383 -0.7933533402912984 4.725771327748122e-10
  outer loop
    vertex -16.500000113983624 -819.3301270189221 6.999999998488261
    vertex -16.974976024623757 -818.9656651864308 2.999999998856989
    vertex -16.500000117088813 -819.3301270189221 2.999999998488262
  endloop
endfacet
facet normal -0.6087614290086383 -0.7933533402912984 4.725771327748122e-10
  outer loop
    vertex -16.974976024623757 -818.9656651864308 2.999999998856989
    vertex -16.500000113983624 -819.3301270189221 6.999999998488261
    vertex -16.974976021518568 -818.9656651864308 6.999999998856987
  endloop
endfacet
facet normal -0.9914448613737258 -0.1305261922206941 7.696522362307831e-10
  outer loop
    vertex -18.839246390522092 -816.2210457561188 7.000000000304223
    vertex -18.829629248534115 -816.2940952255125 3.0000000002967604
    vertex -18.829629245428922 -816.2940952255125 7.000000000296757
  endloop
endfacet
facet normal -0.9914448613737258 -0.1305261922206941 7.696522362307831e-10
  outer loop
    vertex -18.829629248534115 -816.2940952255125 3.0000000002967604
    vertex -18.839246390522092 -816.2210457561188 7.000000000304223
    vertex -18.839246393627285 -816.2210457561188 3.000000000304226
  endloop
endfacet
facet normal 0.3826834323650154 -0.9238795325113176 -2.970746728809991e-10
  outer loop
    vertex -15.134857830148867 -812.2506769012003 2.999999997428499
    vertex -15.50000011398365 -812.4019237886467 6.9999999977119565
    vertex -15.500000117088838 -812.4019237886467 2.999999997711958
  endloop
endfacet
facet normal 0.3826834323650154 -0.9238795325113176 -2.970746728809991e-10
  outer loop
    vertex -15.50000011398365 -812.4019237886467 6.9999999977119565
    vertex -15.134857830148867 -812.2506769012003 2.999999997428499
    vertex -15.134857827043671 -812.2506769012003 6.999999997428496
  endloop
endfacet
facet normal -0.38268343236506275 0.9238795325112981 2.9707467603355223e-10
  outer loop
    vertex -16.500000117088785 -810.6698729810778 2.999999998488262
    vertex -15.294095339496288 -810.1703708685548 6.999999997552113
    vertex -15.29409534260148 -810.1703708685548 2.999999997552112
  endloop
endfacet
facet normal -0.38268343236506275 0.9238795325112981 2.9707467603355223e-10
  outer loop
    vertex -15.294095339496288 -810.1703708685548 6.999999997552113
    vertex -16.500000117088785 -810.6698729810778 2.999999998488262
    vertex -16.50000011398359 -810.6698729810778 6.999999998488261
  endloop
endfacet
facet normal -0.7933533402913054 -0.6087614290086293 6.158745155754655e-10
  outer loop
    vertex -18.33012713290577 -817.5 6.999999999908994
    vertex -17.53553402302163 -818.5355339059328 2.999999999292152
    vertex -17.535534019916437 -818.5355339059328 6.99999999929215
  endloop
endfacet
facet normal -0.7933533402913054 -0.6087614290086293 6.158745155754655e-10
  outer loop
    vertex -17.53553402302163 -818.5355339059328 2.999999999292152
    vertex -18.33012713290577 -817.5 6.999999999908994
    vertex -18.330127136010958 -817.5 2.9999999999089972
  endloop
endfacet
facet normal -0.9238795325112945 -0.38268343236507124 7.172010572070429e-10
  outer loop
    vertex -18.829629245428922 -816.2940952255125 7.000000000296757
    vertex -18.330127136010958 -817.5 2.9999999999089972
    vertex -18.33012713290577 -817.5 6.999999999908994
  endloop
endfacet
facet normal -0.9238795325112945 -0.38268343236507124 7.172010572070429e-10
  outer loop
    vertex -18.330127136010958 -817.5 2.9999999999089972
    vertex -18.829629245428922 -816.2940952255125 7.000000000296757
    vertex -18.829629248534115 -816.2940952255125 3.0000000002967604
  endloop
endfacet
facet normal -0.1305261922200494 -0.9914448613738107 1.0132654639386972e-10
  outer loop
    vertex -14.000000113983651 -820.0000000000001 6.9999999965475
    vertex -15.294095342601514 -819.8296291314455 2.999999997552112
    vertex -14.000000117088844 -820.0000000000001 2.999999996547504
  endloop
endfacet
facet normal -0.1305261922200494 -0.9914448613738107 1.0132654639386972e-10
  outer loop
    vertex -15.294095342601514 -819.8296291314455 2.999999997552112
    vertex -14.000000113983651 -820.0000000000001 6.9999999965475
    vertex -15.294095339496321 -819.8296291314455 6.999999997552113
  endloop
endfacet
facet normal -0.608761429008626 -0.793353340291308 4.725771306800443e-10
  outer loop
    vertex -16.974976021518568 -818.9656651864308 6.999999998856987
    vertex -17.53553402302163 -818.5355339059328 2.999999999292152
    vertex -16.974976024623757 -818.9656651864308 2.999999998856989
  endloop
endfacet
facet normal -0.608761429008626 -0.793353340291308 4.725771306800443e-10
  outer loop
    vertex -17.53553402302163 -818.5355339059328 2.999999999292152
    vertex -16.974976021518568 -818.9656651864308 6.999999998856987
    vertex -17.535534019916437 -818.5355339059328 6.99999999929215
  endloop
endfacet
facet normal -0.991444861373814 -0.13052619222002532 7.696522382104881e-10
  outer loop
    vertex -19.00000011398358 -815.0 7.000000000429019
    vertex -18.839246393627285 -816.2210457561188 3.000000000304226
    vertex -18.839246390522092 -816.2210457561188 7.000000000304223
  endloop
endfacet
facet normal -0.991444861373814 -0.13052619222002532 7.696522382104881e-10
  outer loop
    vertex -18.839246393627285 -816.2210457561188 3.000000000304226
    vertex -19.00000011398358 -815.0 7.000000000429019
    vertex -19.00000011708877 -815.0 3.000000000429021
  endloop
endfacet
facet normal -0.9914448613738103 0.13052619222005366 7.696515428896195e-10
  outer loop
    vertex -18.82962924542891 -813.7059047744873 7.000000000296757
    vertex -19.00000011708877 -815.0 3.000000000429021
    vertex -19.00000011398358 -815.0 7.000000000429019
  endloop
endfacet
facet normal -0.9914448613738103 0.13052619222005366 7.696515428896195e-10
  outer loop
    vertex -19.00000011708877 -815.0 3.000000000429021
    vertex -18.82962924542891 -813.7059047744873 7.000000000296757
    vertex -18.8296292485341 -813.7059047744873 3.0000000002967604
  endloop
endfacet
facet normal -0.38268343236524077 -0.9238795325112241 2.9707440027481535e-10
  outer loop
    vertex -15.294095339496321 -819.8296291314455 6.999999997552113
    vertex -16.500000117088813 -819.3301270189221 2.999999998488262
    vertex -15.294095342601514 -819.8296291314455 2.999999997552112
  endloop
endfacet
facet normal -0.38268343236524077 -0.9238795325112241 2.9707440027481535e-10
  outer loop
    vertex -16.500000117088813 -819.3301270189221 2.999999998488262
    vertex -15.294095339496321 -819.8296291314455 6.999999997552113
    vertex -16.500000113983624 -819.3301270189221 6.999999998488261
  endloop
endfacet
facet normal -0.9238795325112827 0.38268343236509944 7.172010491290485e-10
  outer loop
    vertex -18.33012713290575 -812.4999999999999 6.999999999908994
    vertex -18.8296292485341 -813.7059047744873 3.0000000002967604
    vertex -18.82962924542891 -813.7059047744873 7.000000000296757
  endloop
endfacet
facet normal -0.9238795325112827 0.38268343236509944 7.172010491290485e-10
  outer loop
    vertex -18.8296292485341 -813.7059047744873 3.0000000002967604
    vertex -18.33012713290575 -812.4999999999999 6.999999999908994
    vertex -18.33012713601094 -812.4999999999999 2.9999999999089972
  endloop
endfacet
facet normal 0.793353340291165 0.6087614290088122 -6.158750647439831e-10
  outer loop
    vertex -16.59807632844218 -816.5 2.999999998564398
    vertex -16.12132045754324 -817.1213203435595 6.999999998194286
    vertex -16.121320460648437 -817.1213203435595 2.9999999981942898
  endloop
endfacet
facet normal 0.793353340291165 0.6087614290088122 -6.158750647439831e-10
  outer loop
    vertex -16.12132045754324 -817.1213203435595 6.999999998194286
    vertex -16.59807632844218 -816.5 2.999999998564398
    vertex -16.598076325336987 -816.5 6.999999998564395
  endloop
endfacet
facet normal 0.38268343236531577 -0.9238795325111933 -2.970749442648236e-10
  outer loop
    vertex -14.776457249291225 -812.1022225211328 6.999999997150266
    vertex -15.134857830148867 -812.2506769012003 2.999999997428499
    vertex -14.77645725239642 -812.1022225211328 2.9999999971502675
  endloop
endfacet
facet normal 0.38268343236531577 -0.9238795325111933 -2.970749442648236e-10
  outer loop
    vertex -15.134857830148867 -812.2506769012003 2.999999997428499
    vertex -14.776457249291225 -812.1022225211328 6.999999997150266
    vertex -15.134857827043671 -812.2506769012003 6.999999997428496
  endloop
endfacet
facet normal 0.9238795325111173 -0.3826834323654993 -7.172010564001268e-10
  outer loop
    vertex -16.835675888452837 -814.0736160801919 2.9999999987488484
    vertex -16.89777759285084 -814.2235428646924 6.999999998797056
    vertex -16.89777759595603 -814.2235428646924 2.999999998797057
  endloop
endfacet
facet normal 0.9238795325111173 -0.3826834323654993 -7.172010564001268e-10
  outer loop
    vertex -16.89777759285084 -814.2235428646924 6.999999998797056
    vertex -16.835675888452837 -814.0736160801919 2.9999999987488484
    vertex -16.835675885347648 -814.0736160801919 6.999999998748845
  endloop
endfacet
facet normal 0.382683432365067 0.9238795325112962 -2.970746686654512e-10
  outer loop
    vertex -15.500000117088854 -817.5980762113534 2.999999997711958
    vertex -14.776457249291248 -817.8977774788672 6.999999997150266
    vertex -14.77645725239644 -817.8977774788672 2.9999999971502675
  endloop
endfacet
facet normal 0.382683432365067 0.9238795325112962 -2.970746686654512e-10
  outer loop
    vertex -14.776457249291248 -817.8977774788672 6.999999997150266
    vertex -15.500000117088854 -817.5980762113534 2.999999997711958
    vertex -15.500000113983665 -817.5980762113534 6.9999999977119565
  endloop
endfacet
facet normal 0.60876142900874 -0.7933533402912203 -4.725775668010489e-10
  outer loop
    vertex -15.50000011398365 -812.4019237886467 6.9999999977119565
    vertex -16.121320460648423 -812.8786796564403 2.9999999981942898
    vertex -15.500000117088838 -812.4019237886467 2.999999997711958
  endloop
endfacet
facet normal 0.60876142900874 -0.7933533402912203 -4.725775668010489e-10
  outer loop
    vertex -16.121320460648423 -812.8786796564403 2.9999999981942898
    vertex -15.50000011398365 -812.4019237886467 6.9999999977119565
    vertex -16.12132045754323 -812.8786796564403 6.999999998194286
  endloop
endfacet
facet normal 0.9914448613738053 0.13052619222009115 -7.69651536825178e-10
  outer loop
    vertex -17.000000117088867 -815.0 2.9999999988764148
    vertex -16.897777592850844 -815.7764571353076 6.999999998797056
    vertex -16.897777595956033 -815.7764571353076 2.999999998797057
  endloop
endfacet
facet normal 0.9914448613738053 0.13052619222009115 -7.69651536825178e-10
  outer loop
    vertex -16.897777592850844 -815.7764571353076 6.999999998797056
    vertex -17.000000117088867 -815.0 2.9999999988764148
    vertex -17.000000113983674 -815.0 6.999999998876413
  endloop
endfacet
facet normal 0.7933533402911631 -0.6087614290088145 -6.158750647439815e-10
  outer loop
    vertex -16.121320460648423 -812.8786796564403 2.9999999981942898
    vertex -16.598076325336976 -813.5 6.999999998564395
    vertex -16.598076328442165 -813.5 2.999999998564398
  endloop
endfacet
facet normal 0.7933533402911631 -0.6087614290088145 -6.158750647439815e-10
  outer loop
    vertex -16.598076325336976 -813.5 6.999999998564395
    vertex -16.121320460648423 -812.8786796564403 2.9999999981942898
    vertex -16.12132045754323 -812.8786796564403 6.999999998194286
  endloop
endfacet
facet normal 0.9914448613738044 -0.13052619222009829 -7.696515345426531e-10
  outer loop
    vertex -16.89777759595603 -814.2235428646924 2.999999998797057
    vertex -17.000000113983674 -815.0 6.999999998876413
    vertex -17.000000117088867 -815.0 2.9999999988764148
  endloop
endfacet
facet normal 0.9914448613738044 -0.13052619222009829 -7.696515345426531e-10
  outer loop
    vertex -17.000000113983674 -815.0 6.999999998876413
    vertex -16.89777759595603 -814.2235428646924 2.999999998797057
    vertex -16.89777759285084 -814.2235428646924 6.999999998797056
  endloop
endfacet
facet normal 0.9238795325112977 0.3826834323650633 -7.172010564936643e-10
  outer loop
    vertex -16.897777595956033 -815.7764571353076 2.999999998797057
    vertex -16.598076325336987 -816.5 6.999999998564395
    vertex -16.59807632844218 -816.5 2.999999998564398
  endloop
endfacet
facet normal 0.9238795325112977 0.3826834323650633 -7.172010564936643e-10
  outer loop
    vertex -16.598076325336987 -816.5 6.999999998564395
    vertex -16.897777595956033 -815.7764571353076 2.999999998797057
    vertex -16.897777592850844 -815.7764571353076 6.999999998797056
  endloop
endfacet
facet normal -0.793353340291252 0.6087614290086987 6.158744910565073e-10
  outer loop
    vertex -17.535534019916415 -811.4644660940673 6.99999999929215
    vertex -18.33012713601094 -812.4999999999999 2.9999999999089972
    vertex -18.33012713290575 -812.4999999999999 6.999999999908994
  endloop
endfacet
facet normal -0.793353340291252 0.6087614290086987 6.158744910565073e-10
  outer loop
    vertex -18.33012713601094 -812.4999999999999 2.9999999999089972
    vertex -17.535534019916415 -811.4644660940673 6.99999999929215
    vertex -17.535534023021608 -811.4644660940673 2.999999999292152
  endloop
endfacet
facet normal -7.763028989676658e-10 -1.413129962617728e-17 -1.0
  outer loop
    vertex -16.500000117088785 -810.6698729810778 2.999999998488262
    vertex -17.000000117088867 -815.0 2.9999999988764148
    vertex -17.535534023021608 -811.4644660940673 2.999999999292152
  endloop
endfacet
facet normal -7.763028989676658e-10 -1.413129962617728e-17 -1.0
  outer loop
    vertex -17.000000117088867 -815.0 2.9999999988764148
    vertex -16.500000117088785 -810.6698729810778 2.999999998488262
    vertex -16.89777759595603 -814.2235428646924 2.999999998797057
  endloop
endfacet
facet normal -7.763028989676658e-10 -1.413129962617728e-17 -1.0
  outer loop
    vertex -16.89777759595603 -814.2235428646924 2.999999998797057
    vertex -16.500000117088785 -810.6698729810778 2.999999998488262
    vertex -16.835675888452837 -814.0736160801919 2.9999999987488484
  endloop
endfacet
facet normal -7.763028989676658e-10 -1.413129962617728e-17 -1.0
  outer loop
    vertex -16.835675888452837 -814.0736160801919 2.9999999987488484
    vertex -16.500000117088785 -810.6698729810778 2.999999998488262
    vertex -16.598076328442165 -813.5 2.999999998564398
  endloop
endfacet
facet normal -7.763028989676658e-10 -1.413129962617728e-17 -1.0
  outer loop
    vertex -16.598076328442165 -813.5 2.999999998564398
    vertex -16.500000117088785 -810.6698729810778 2.999999998488262
    vertex -16.121320460648423 -812.8786796564403 2.9999999981942898
  endloop
endfacet
facet normal -7.763028989676658e-10 -1.413129962617728e-17 -1.0
  outer loop
    vertex -16.121320460648423 -812.8786796564403 2.9999999981942898
    vertex -16.500000117088785 -810.6698729810778 2.999999998488262
    vertex -15.29409534260148 -810.1703708685548 2.999999997552112
  endloop
endfacet
facet normal -7.763028989676658e-10 -1.413129962617728e-17 -1.0
  outer loop
    vertex -16.121320460648423 -812.8786796564403 2.9999999981942898
    vertex -15.29409534260148 -810.1703708685548 2.999999997552112
    vertex -15.500000117088838 -812.4019237886467 2.999999997711958
  endloop
endfacet
facet normal -7.763028989676658e-10 -1.413129962617728e-17 -1.0
  outer loop
    vertex -15.500000117088838 -812.4019237886467 2.999999997711958
    vertex -15.29409534260148 -810.1703708685548 2.999999997552112
    vertex -15.134857830148867 -812.2506769012003 2.999999997428499
  endloop
endfacet
facet normal -7.763028989676658e-10 -1.413129962617728e-17 -1.0
  outer loop
    vertex -15.134857830148867 -812.2506769012003 2.999999997428499
    vertex -15.29409534260148 -810.1703708685548 2.999999997552112
    vertex -14.00000011708881 -810.0 2.999999996547504
  endloop
endfacet
facet normal -7.763028989676658e-10 -1.413129962617728e-17 -1.0
  outer loop
    vertex -15.134857830148867 -812.2506769012003 2.999999997428499
    vertex -14.00000011708881 -810.0 2.999999996547504
    vertex -14.77645725239642 -812.1022225211328 2.9999999971502675
  endloop
endfacet
facet normal -7.763028989676658e-10 -1.413129962617728e-17 -1.0
  outer loop
    vertex -14.77645725239642 -812.1022225211328 2.9999999971502675
    vertex -14.00000011708881 -810.0 2.999999996547504
    vertex -14.000000117088815 -812.0 2.999999996547504
  endloop
endfacet
facet normal -7.763028989676658e-10 -1.413129962617728e-17 -1.0
  outer loop
    vertex -14.000000117088815 -812.0 2.999999996547504
    vertex -14.00000011708881 -810.0 2.999999996547504
    vertex -13.000000117088813 -812.0 2.9999999957712054
  endloop
endfacet
facet normal -7.763028989676658e-10 -1.413129962617728e-17 -1.0
  outer loop
    vertex -13.000000117088813 -812.0 2.9999999957712054
    vertex -14.00000011708881 -810.0 2.999999996547504
    vertex -13.000000117088808 -810.0 2.9999999957712054
  endloop
endfacet
facet normal -7.763028989676658e-10 -1.413129962617728e-17 -1.0
  outer loop
    vertex -18.8296292485341 -813.7059047744873 3.0000000002967604
    vertex -18.839246393627285 -816.2210457561188 3.000000000304226
    vertex -19.00000011708877 -815.0 3.000000000429021
  endloop
endfacet
facet normal -7.763028989676658e-10 -1.413129962617728e-17 -1.0
  outer loop
    vertex -18.839246393627285 -816.2210457561188 3.000000000304226
    vertex -18.8296292485341 -813.7059047744873 3.0000000002967604
    vertex -18.829629248534115 -816.2940952255125 3.0000000002967604
  endloop
endfacet
facet normal -7.763028989676658e-10 -1.413129962617728e-17 -1.0
  outer loop
    vertex -18.829629248534115 -816.2940952255125 3.0000000002967604
    vertex -18.8296292485341 -813.7059047744873 3.0000000002967604
    vertex -18.330127136010958 -817.5 2.9999999999089972
  endloop
endfacet
facet normal -7.763028989676658e-10 -1.413129962617728e-17 -1.0
  outer loop
    vertex -18.330127136010958 -817.5 2.9999999999089972
    vertex -18.8296292485341 -813.7059047744873 3.0000000002967604
    vertex -18.33012713601094 -812.4999999999999 2.9999999999089972
  endloop
endfacet
facet normal -7.763028989676658e-10 -1.413129962617728e-17 -1.0
  outer loop
    vertex -18.330127136010958 -817.5 2.9999999999089972
    vertex -18.33012713601094 -812.4999999999999 2.9999999999089972
    vertex -17.53553402302163 -818.5355339059328 2.999999999292152
  endloop
endfacet
facet normal -7.763028989676658e-10 -1.413129962617728e-17 -1.0
  outer loop
    vertex -17.53553402302163 -818.5355339059328 2.999999999292152
    vertex -18.33012713601094 -812.4999999999999 2.9999999999089972
    vertex -17.535534023021608 -811.4644660940673 2.999999999292152
  endloop
endfacet
facet normal -7.763028989676658e-10 -1.413129962617728e-17 -1.0
  outer loop
    vertex -17.53553402302163 -818.5355339059328 2.999999999292152
    vertex -17.535534023021608 -811.4644660940673 2.999999999292152
    vertex -16.974976024623757 -818.9656651864308 2.999999998856989
  endloop
endfacet
facet normal -7.763028989676658e-10 -1.413129962617728e-17 -1.0
  outer loop
    vertex -16.974976024623757 -818.9656651864308 2.999999998856989
    vertex -17.535534023021608 -811.4644660940673 2.999999999292152
    vertex -17.000000117088867 -815.0 2.9999999988764148
  endloop
endfacet
facet normal -7.763028989676658e-10 -1.413129962617728e-17 -1.0
  outer loop
    vertex -16.974976024623757 -818.9656651864308 2.999999998856989
    vertex -17.000000117088867 -815.0 2.9999999988764148
    vertex -16.897777595956033 -815.7764571353076 2.999999998797057
  endloop
endfacet
facet normal -7.763028989676658e-10 -1.413129962617728e-17 -1.0
  outer loop
    vertex -16.974976024623757 -818.9656651864308 2.999999998856989
    vertex -16.897777595956033 -815.7764571353076 2.999999998797057
    vertex -16.500000117088813 -819.3301270189221 2.999999998488262
  endloop
endfacet
facet normal -7.763028989676658e-10 -1.413129962617728e-17 -1.0
  outer loop
    vertex -16.500000117088813 -819.3301270189221 2.999999998488262
    vertex -16.897777595956033 -815.7764571353076 2.999999998797057
    vertex -16.59807632844218 -816.5 2.999999998564398
  endloop
endfacet
facet normal -7.763028989676658e-10 -1.413129962617728e-17 -1.0
  outer loop
    vertex -16.500000117088813 -819.3301270189221 2.999999998488262
    vertex -16.59807632844218 -816.5 2.999999998564398
    vertex -16.121320460648437 -817.1213203435595 2.9999999981942898
  endloop
endfacet
facet normal -7.763028989676658e-10 -1.413129962617728e-17 -1.0
  outer loop
    vertex -16.500000117088813 -819.3301270189221 2.999999998488262
    vertex -16.121320460648437 -817.1213203435595 2.9999999981942898
    vertex -15.294095342601514 -819.8296291314455 2.999999997552112
  endloop
endfacet
facet normal -7.763028989676658e-10 -1.413129962617728e-17 -1.0
  outer loop
    vertex -15.294095342601514 -819.8296291314455 2.999999997552112
    vertex -16.121320460648437 -817.1213203435595 2.9999999981942898
    vertex -15.500000117088854 -817.5980762113534 2.999999997711958
  endloop
endfacet
facet normal -7.763028989676658e-10 -1.413129962617728e-17 -1.0
  outer loop
    vertex -15.294095342601514 -819.8296291314455 2.999999997552112
    vertex -15.500000117088854 -817.5980762113534 2.999999997711958
    vertex -14.77645725239644 -817.8977774788672 2.9999999971502675
  endloop
endfacet
facet normal -7.763028989676658e-10 -1.413129962617728e-17 -1.0
  outer loop
    vertex -15.294095342601514 -819.8296291314455 2.999999997552112
    vertex -14.77645725239644 -817.8977774788672 2.9999999971502675
    vertex -14.000000117088844 -820.0000000000001 2.999999996547504
  endloop
endfacet
facet normal -7.763028989676658e-10 -1.413129962617728e-17 -1.0
  outer loop
    vertex -14.000000117088844 -820.0000000000001 2.999999996547504
    vertex -14.77645725239644 -817.8977774788672 2.9999999971502675
    vertex -14.000000117088838 -818.0 2.999999996547504
  endloop
endfacet
facet normal -7.763028989676658e-10 -1.413129962617728e-17 -1.0
  outer loop
    vertex -14.000000117088844 -820.0000000000001 2.999999996547504
    vertex -14.000000117088838 -818.0 2.999999996547504
    vertex -13.000000117088842 -820.0000000000001 2.9999999957712054
  endloop
endfacet
facet normal -7.763028989676658e-10 -1.413129962617728e-17 -1.0
  outer loop
    vertex -13.000000117088842 -820.0000000000001 2.9999999957712054
    vertex -14.000000117088838 -818.0 2.999999996547504
    vertex -13.000000117088836 -818.0 2.9999999957712054
  endloop
endfacet
facet normal 0.6087614290088144 0.7933533402911634 -4.725775668011068e-10
  outer loop
    vertex -16.121320460648437 -817.1213203435595 2.9999999981942898
    vertex -15.500000113983665 -817.5980762113534 6.9999999977119565
    vertex -15.500000117088854 -817.5980762113534 2.999999997711958
  endloop
endfacet
facet normal 0.6087614290088144 0.7933533402911634 -4.725775668011068e-10
  outer loop
    vertex -15.500000113983665 -817.5980762113534 6.9999999977119565
    vertex -16.121320460648437 -817.1213203435595 2.9999999981942898
    vertex -16.12132045754324 -817.1213203435595 6.999999998194286
  endloop
endfacet
facet normal 0.9238795325113417 -0.38268343236495717 -7.1720105718668e-10
  outer loop
    vertex -16.598076328442165 -813.5 2.999999998564398
    vertex -16.835675885347648 -814.0736160801919 6.999999998748845
    vertex -16.835675888452837 -814.0736160801919 2.9999999987488484
  endloop
endfacet
facet normal 0.9238795325113417 -0.38268343236495717 -7.1720105718668e-10
  outer loop
    vertex -16.835675885347648 -814.0736160801919 6.999999998748845
    vertex -16.598076328442165 -813.5 2.999999998564398
    vertex -16.598076325336976 -813.5 6.999999998564395
  endloop
endfacet
facet normal 0.1305261922199812 -0.9914448613738197 -1.0132663903618227e-10
  outer loop
    vertex -14.000000113983623 -812.0 6.9999999965475
    vertex -14.77645725239642 -812.1022225211328 2.9999999971502675
    vertex -14.000000117088815 -812.0 2.999999996547504
  endloop
endfacet
facet normal 0.1305261922199812 -0.9914448613738197 -1.0132663903618227e-10
  outer loop
    vertex -14.77645725239642 -812.1022225211328 2.9999999971502675
    vertex -14.000000113983623 -812.0 6.9999999965475
    vertex -14.776457249291225 -812.1022225211328 6.999999997150266
  endloop
endfacet
facet normal -0.608761429008716 0.7933533402912387 4.725775704751555e-10
  outer loop
    vertex -17.535534023021608 -811.4644660940673 2.999999999292152
    vertex -16.50000011398359 -810.6698729810778 6.999999998488261
    vertex -16.500000117088785 -810.6698729810778 2.999999998488262
  endloop
endfacet
facet normal -0.608761429008716 0.7933533402912387 4.725775704751555e-10
  outer loop
    vertex -16.50000011398359 -810.6698729810778 6.999999998488261
    vertex -17.535534023021608 -811.4644660940673 2.999999999292152
    vertex -17.535534019916415 -811.4644660940673 6.99999999929215
  endloop
endfacet
facet normal -1.0 4.260365386961834e-15 7.762901456269506e-10
  outer loop
    vertex -13.00000011243098 -780.0000000000002 8.99999999577121
    vertex -13.000000113983651 -820.0000000000001 6.999999995771202
    vertex -13.000000112431048 -820.0000000000001 8.99999999577121
  endloop
endfacet
facet normal -1.0 4.260365386961834e-15 7.762901456269506e-10
  outer loop
    vertex -13.000000113983651 -820.0000000000001 6.999999995771202
    vertex -13.00000011243098 -780.0000000000002 8.99999999577121
    vertex -13.000000113983642 -818.0 6.999999995771202
  endloop
endfacet
facet normal -1.0 4.260365386961834e-15 7.762901456269506e-10
  outer loop
    vertex -13.000000113983642 -818.0 6.999999995771202
    vertex -13.00000011243098 -780.0000000000002 8.99999999577121
    vertex -13.000000113983623 -812.0 6.999999995771202
  endloop
endfacet
facet normal -1.0 4.260365386961834e-15 7.762901456269506e-10
  outer loop
    vertex -13.000000113983642 -818.0 6.999999995771202
    vertex -13.000000113983623 -812.0 6.999999995771202
    vertex -13.000000117088836 -818.0 2.9999999957712054
  endloop
endfacet
facet normal -1.0 4.260365386961834e-15 7.762901456269506e-10
  outer loop
    vertex -13.000000113983623 -812.0 6.999999995771202
    vertex -13.00000011243098 -780.0000000000002 8.99999999577121
    vertex -13.000000113983617 -810.0 6.999999995771202
  endloop
endfacet
facet normal -1.0 4.260365386961834e-15 7.762901456269506e-10
  outer loop
    vertex -13.000000113983617 -810.0 6.999999995771202
    vertex -13.00000011243098 -780.0000000000002 8.99999999577121
    vertex -13.000000117088808 -810.0 2.9999999957712054
  endloop
endfacet
facet normal -1.0 4.260365386961834e-15 7.762901456269506e-10
  outer loop
    vertex -13.000000117088836 -818.0 2.9999999957712054
    vertex -13.000000118641449 -820.0000000000001 0.9999999957712081
    vertex -13.000000117088842 -820.0000000000001 2.9999999957712054
  endloop
endfacet
facet normal -1.0 4.260365386961834e-15 7.762901456269506e-10
  outer loop
    vertex -13.000000118641449 -820.0000000000001 0.9999999957712081
    vertex -13.000000117088836 -818.0 2.9999999957712054
    vertex -13.00000011864121 -780.0000000000002 0.9999999957712081
  endloop
endfacet
facet normal -1.0 4.260365386961834e-15 7.762901456269506e-10
  outer loop
    vertex -13.00000011864121 -780.0000000000002 0.9999999957712081
    vertex -13.000000117088836 -818.0 2.9999999957712054
    vertex -13.000000117088813 -812.0 2.9999999957712054
  endloop
endfacet
facet normal -1.0 4.260365386961834e-15 7.762901456269506e-10
  outer loop
    vertex -13.000000117088813 -812.0 2.9999999957712054
    vertex -13.000000117088836 -818.0 2.9999999957712054
    vertex -13.000000113983623 -812.0 6.999999995771202
  endloop
endfacet
facet normal -1.0 4.260365386961834e-15 7.762901456269506e-10
  outer loop
    vertex -13.00000011864121 -780.0000000000002 0.9999999957712081
    vertex -13.000000117088813 -812.0 2.9999999957712054
    vertex -13.000000117088808 -810.0 2.9999999957712054
  endloop
endfacet
facet normal -1.0 4.260365386961834e-15 7.762901456269506e-10
  outer loop
    vertex -13.00000011864121 -780.0000000000002 0.9999999957712081
    vertex -13.000000117088808 -810.0 2.9999999957712054
    vertex -13.00000011243098 -780.0000000000002 8.99999999577121
  endloop
endfacet
facet normal -1.1636628575720046e-29 -1.0 4.354342553903338e-29
  outer loop
    vertex -13.000000113983623 -812.0 6.999999995771202
    vertex -14.000000117088815 -812.0 2.999999996547504
    vertex -13.000000117088813 -812.0 2.9999999957712054
  endloop
endfacet
facet normal -1.1636628575720046e-29 -1.0 4.354342553903338e-29
  outer loop
    vertex -14.000000117088815 -812.0 2.999999996547504
    vertex -13.000000113983623 -812.0 6.999999995771202
    vertex -14.000000113983623 -812.0 6.9999999965475
  endloop
endfacet
facet normal 7.76302949308091e-10 2.464847373273611e-17 1.0
  outer loop
    vertex -18.839246390522092 -816.2210457561188 7.000000000304223
    vertex -18.82962924542891 -813.7059047744873 7.000000000296757
    vertex -19.00000011398358 -815.0 7.000000000429019
  endloop
endfacet
facet normal 7.76302949308091e-10 2.464847373273611e-17 1.0
  outer loop
    vertex -18.82962924542891 -813.7059047744873 7.000000000296757
    vertex -18.839246390522092 -816.2210457561188 7.000000000304223
    vertex -18.829629245428922 -816.2940952255125 7.000000000296757
  endloop
endfacet
facet normal 7.76302949308091e-10 2.464847373273611e-17 1.0
  outer loop
    vertex -18.82962924542891 -813.7059047744873 7.000000000296757
    vertex -18.829629245428922 -816.2940952255125 7.000000000296757
    vertex -18.33012713290577 -817.5 6.999999999908994
  endloop
endfacet
facet normal 7.76302949308091e-10 2.464847373273611e-17 1.0
  outer loop
    vertex -18.82962924542891 -813.7059047744873 7.000000000296757
    vertex -18.33012713290577 -817.5 6.999999999908994
    vertex -18.33012713290575 -812.4999999999999 6.999999999908994
  endloop
endfacet
facet normal 7.76302949308091e-10 2.464847373273611e-17 1.0
  outer loop
    vertex -18.33012713290575 -812.4999999999999 6.999999999908994
    vertex -18.33012713290577 -817.5 6.999999999908994
    vertex -17.535534019916437 -818.5355339059328 6.99999999929215
  endloop
endfacet
facet normal 7.76302949308091e-10 2.464847373273611e-17 1.0
  outer loop
    vertex -18.33012713290575 -812.4999999999999 6.999999999908994
    vertex -17.535534019916437 -818.5355339059328 6.99999999929215
    vertex -17.535534019916415 -811.4644660940673 6.99999999929215
  endloop
endfacet
facet normal 7.76302949308091e-10 2.464847373273611e-17 1.0
  outer loop
    vertex -17.535534019916415 -811.4644660940673 6.99999999929215
    vertex -17.535534019916437 -818.5355339059328 6.99999999929215
    vertex -16.974976021518568 -818.9656651864308 6.999999998856987
  endloop
endfacet
facet normal 7.76302949308091e-10 2.464847373273611e-17 1.0
  outer loop
    vertex -17.535534019916415 -811.4644660940673 6.99999999929215
    vertex -16.974976021518568 -818.9656651864308 6.999999998856987
    vertex -17.000000113983674 -815.0 6.999999998876413
  endloop
endfacet
facet normal 7.76302949308091e-10 2.464847373273611e-17 1.0
  outer loop
    vertex -17.000000113983674 -815.0 6.999999998876413
    vertex -16.974976021518568 -818.9656651864308 6.999999998856987
    vertex -16.897777592850844 -815.7764571353076 6.999999998797056
  endloop
endfacet
facet normal 7.76302949308091e-10 2.464847373273611e-17 1.0
  outer loop
    vertex -16.897777592850844 -815.7764571353076 6.999999998797056
    vertex -16.974976021518568 -818.9656651864308 6.999999998856987
    vertex -16.500000113983624 -819.3301270189221 6.999999998488261
  endloop
endfacet
facet normal 7.76302949308091e-10 2.464847373273611e-17 1.0
  outer loop
    vertex -16.897777592850844 -815.7764571353076 6.999999998797056
    vertex -16.500000113983624 -819.3301270189221 6.999999998488261
    vertex -16.598076325336987 -816.5 6.999999998564395
  endloop
endfacet
facet normal 7.76302949308091e-10 2.464847373273611e-17 1.0
  outer loop
    vertex -16.598076325336987 -816.5 6.999999998564395
    vertex -16.500000113983624 -819.3301270189221 6.999999998488261
    vertex -16.12132045754324 -817.1213203435595 6.999999998194286
  endloop
endfacet
facet normal 7.76302949308091e-10 2.464847373273611e-17 1.0
  outer loop
    vertex -16.12132045754324 -817.1213203435595 6.999999998194286
    vertex -16.500000113983624 -819.3301270189221 6.999999998488261
    vertex -15.294095339496321 -819.8296291314455 6.999999997552113
  endloop
endfacet
facet normal 7.76302949308091e-10 2.464847373273611e-17 1.0
  outer loop
    vertex -16.12132045754324 -817.1213203435595 6.999999998194286
    vertex -15.294095339496321 -819.8296291314455 6.999999997552113
    vertex -15.500000113983665 -817.5980762113534 6.9999999977119565
  endloop
endfacet
facet normal 7.76302949308091e-10 2.464847373273611e-17 1.0
  outer loop
    vertex -15.500000113983665 -817.5980762113534 6.9999999977119565
    vertex -15.294095339496321 -819.8296291314455 6.999999997552113
    vertex -14.776457249291248 -817.8977774788672 6.999999997150266
  endloop
endfacet
facet normal 7.76302949308091e-10 2.464847373273611e-17 1.0
  outer loop
    vertex -14.776457249291248 -817.8977774788672 6.999999997150266
    vertex -15.294095339496321 -819.8296291314455 6.999999997552113
    vertex -14.000000113983651 -820.0000000000001 6.9999999965475
  endloop
endfacet
facet normal 7.76302949308091e-10 2.464847373273611e-17 1.0
  outer loop
    vertex -14.776457249291248 -817.8977774788672 6.999999997150266
    vertex -14.000000113983651 -820.0000000000001 6.9999999965475
    vertex -14.000000113983646 -818.0 6.9999999965475
  endloop
endfacet
facet normal 7.76302949308091e-10 2.464847373273611e-17 1.0
  outer loop
    vertex -14.000000113983646 -818.0 6.9999999965475
    vertex -14.000000113983651 -820.0000000000001 6.9999999965475
    vertex -13.000000113983651 -820.0000000000001 6.999999995771202
  endloop
endfacet
facet normal 7.76302949308091e-10 2.464847373273611e-17 1.0
  outer loop
    vertex -14.000000113983646 -818.0 6.9999999965475
    vertex -13.000000113983651 -820.0000000000001 6.999999995771202
    vertex -13.000000113983642 -818.0 6.999999995771202
  endloop
endfacet
facet normal 7.76302949308091e-10 2.464847373273611e-17 1.0
  outer loop
    vertex -17.000000113983674 -815.0 6.999999998876413
    vertex -16.50000011398359 -810.6698729810778 6.999999998488261
    vertex -17.535534019916415 -811.4644660940673 6.99999999929215
  endloop
endfacet
facet normal 7.76302949308091e-10 2.464847373273611e-17 1.0
  outer loop
    vertex -16.50000011398359 -810.6698729810778 6.999999998488261
    vertex -17.000000113983674 -815.0 6.999999998876413
    vertex -16.89777759285084 -814.2235428646924 6.999999998797056
  endloop
endfacet
facet normal 7.76302949308091e-10 2.464847373273611e-17 1.0
  outer loop
    vertex -16.50000011398359 -810.6698729810778 6.999999998488261
    vertex -16.89777759285084 -814.2235428646924 6.999999998797056
    vertex -16.835675885347648 -814.0736160801919 6.999999998748845
  endloop
endfacet
facet normal 7.76302949308091e-10 2.464847373273611e-17 1.0
  outer loop
    vertex -16.50000011398359 -810.6698729810778 6.999999998488261
    vertex -16.835675885347648 -814.0736160801919 6.999999998748845
    vertex -16.598076325336976 -813.5 6.999999998564395
  endloop
endfacet
facet normal 7.76302949308091e-10 2.464847373273611e-17 1.0
  outer loop
    vertex -16.50000011398359 -810.6698729810778 6.999999998488261
    vertex -16.598076325336976 -813.5 6.999999998564395
    vertex -16.12132045754323 -812.8786796564403 6.999999998194286
  endloop
endfacet
facet normal 7.76302949308091e-10 2.464847373273611e-17 1.0
  outer loop
    vertex -16.50000011398359 -810.6698729810778 6.999999998488261
    vertex -16.12132045754323 -812.8786796564403 6.999999998194286
    vertex -15.294095339496288 -810.1703708685548 6.999999997552113
  endloop
endfacet
facet normal 7.76302949308091e-10 2.464847373273611e-17 1.0
  outer loop
    vertex -15.294095339496288 -810.1703708685548 6.999999997552113
    vertex -16.12132045754323 -812.8786796564403 6.999999998194286
    vertex -15.50000011398365 -812.4019237886467 6.9999999977119565
  endloop
endfacet
facet normal 7.76302949308091e-10 2.464847373273611e-17 1.0
  outer loop
    vertex -15.294095339496288 -810.1703708685548 6.999999997552113
    vertex -15.50000011398365 -812.4019237886467 6.9999999977119565
    vertex -15.134857827043671 -812.2506769012003 6.999999997428496
  endloop
endfacet
facet normal 7.76302949308091e-10 2.464847373273611e-17 1.0
  outer loop
    vertex -15.294095339496288 -810.1703708685548 6.999999997552113
    vertex -15.134857827043671 -812.2506769012003 6.999999997428496
    vertex -14.000000113983617 -810.0 6.9999999965475
  endloop
endfacet
facet normal 7.76302949308091e-10 2.464847373273611e-17 1.0
  outer loop
    vertex -14.000000113983617 -810.0 6.9999999965475
    vertex -15.134857827043671 -812.2506769012003 6.999999997428496
    vertex -14.776457249291225 -812.1022225211328 6.999999997150266
  endloop
endfacet
facet normal 7.76302949308091e-10 2.464847373273611e-17 1.0
  outer loop
    vertex -14.000000113983617 -810.0 6.9999999965475
    vertex -14.776457249291225 -812.1022225211328 6.999999997150266
    vertex -14.000000113983623 -812.0 6.9999999965475
  endloop
endfacet
facet normal 7.76302949308091e-10 2.464847373273611e-17 1.0
  outer loop
    vertex -14.000000113983617 -810.0 6.9999999965475
    vertex -14.000000113983623 -812.0 6.9999999965475
    vertex -13.000000113983623 -812.0 6.999999995771202
  endloop
endfacet
facet normal 7.76302949308091e-10 2.464847373273611e-17 1.0
  outer loop
    vertex -14.000000113983617 -810.0 6.9999999965475
    vertex -13.000000113983623 -812.0 6.999999995771202
    vertex -13.000000113983617 -810.0 6.999999995771202
  endloop
endfacet
facet normal 1.0 -4.229949723821866e-15 -7.76290010051639e-10
  outer loop
    vertex -8.000000118641207 -780.0000000000002 0.9999999918897421
    vertex -8.000000112431048 -820.0000000000001 8.99999999188974
    vertex -8.000000118641445 -820.0000000000001 0.9999999918897421
  endloop
endfacet
facet normal 1.0 -4.229949723821866e-15 -7.76290010051639e-10
  outer loop
    vertex -8.000000112431048 -820.0000000000001 8.99999999188974
    vertex -8.000000118641207 -780.0000000000002 0.9999999918897421
    vertex -8.00000011243098 -780.0000000000002 8.99999999188974
  endloop
endfacet
facet normal 0.13052619222009473 0.9914448613738048 -1.0132673045257455e-10
  outer loop
    vertex -14.77645725239644 -817.8977774788672 2.9999999971502675
    vertex -14.000000113983646 -818.0 6.9999999965475
    vertex -14.000000117088838 -818.0 2.999999996547504
  endloop
endfacet
facet normal 0.13052619222009473 0.9914448613738048 -1.0132673045257455e-10
  outer loop
    vertex -14.000000113983646 -818.0 6.9999999965475
    vertex -14.77645725239644 -817.8977774788672 2.9999999971502675
    vertex -14.776457249291248 -817.8977774788672 6.999999997150266
  endloop
endfacet
facet normal 1.1636628575720046e-29 1.0 -4.354342553903338e-29
  outer loop
    vertex -14.000000117088838 -818.0 2.999999996547504
    vertex -13.000000113983642 -818.0 6.999999995771202
    vertex -13.000000117088836 -818.0 2.9999999957712054
  endloop
endfacet
facet normal 1.1636628575720046e-29 1.0 -4.354342553903338e-29
  outer loop
    vertex -13.000000113983642 -818.0 6.999999995771202
    vertex -14.000000117088838 -818.0 2.999999996547504
    vertex -14.000000113983646 -818.0 6.9999999965475
  endloop
endfacet
facet normal -0.1305261922200494 0.9914448613738107 1.013265418288214e-10
  outer loop
    vertex -15.29409534260148 -810.1703708685548 2.999999997552112
    vertex -14.000000113983617 -810.0 6.9999999965475
    vertex -14.00000011708881 -810.0 2.999999996547504
  endloop
endfacet
facet normal -0.1305261922200494 0.9914448613738107 1.013265418288214e-10
  outer loop
    vertex -14.000000113983617 -810.0 6.9999999965475
    vertex -15.29409534260148 -810.1703708685548 2.999999997552112
    vertex -15.294095339496288 -810.1703708685548 6.999999997552113
  endloop
endfacet
facet normal 1.1636628575720046e-29 1.0 -4.354342553903338e-29
  outer loop
    vertex -14.00000011708881 -810.0 2.999999996547504
    vertex -13.000000113983617 -810.0 6.999999995771202
    vertex -13.000000117088808 -810.0 2.9999999957712054
  endloop
endfacet
facet normal 1.1636628575720046e-29 1.0 -4.354342553903338e-29
  outer loop
    vertex -13.000000113983617 -810.0 6.999999995771202
    vertex -14.00000011708881 -810.0 2.999999996547504
    vertex -14.000000113983617 -810.0 6.9999999965475
  endloop
endfacet
endsolid Robochera
