solid Robochera
facet normal 0.21693045857646806 -7.672321236626038e-16 0.9761870600155503
  outer loop
    vertex -17.500000111654703 -249.99999999999991 9.99999999926455
    vertex -13.000000112431 -249.99999999999991 8.999999995771205
    vertex -17.500000111654703 -245.99999999999991 9.99999999926455
  endloop
endfacet
facet normal 0.21693045857646806 -7.672321236626038e-16 0.9761870600155503
  outer loop
    vertex -13.000000112431 -245.99999999999991 8.99999999577121
    vertex -17.500000111654703 -245.99999999999991 9.99999999926455
    vertex -13.000000112431 -249.99999999999991 8.999999995771205
  endloop
endfacet
facet normal 3.4290792427782307e-15 -1.0 -2.661887346200095e-24
  outer loop
    vertex -13.000000118641163 -289.9999999999999 0.999999995771214
    vertex -8.000000118641163 -289.9999999999999 0.9999999918897478
    vertex -13.000000112430932 -289.9999999999999 8.999999995771205
  endloop
endfacet
facet normal 3.4290792427782307e-15 -1.0 -2.661887346200095e-24
  outer loop
    vertex -8.000000112430936 -289.9999999999999 8.999999991889737
    vertex -13.000000112430932 -289.9999999999999 8.999999995771205
    vertex -8.000000118641163 -289.9999999999999 0.9999999918897478
  endloop
endfacet
facet normal 7.763026868160277e-10 -1.0773582267532707e-16 1.0
  outer loop
    vertex -19.000000113983535 -255.00000000000003 7.000000000429024
    vertex -18.829629245428865 -256.2940952255127 7.0000000002967635
    vertex -18.839246390522042 -253.7789542438813 7.0000000003042295
  endloop
endfacet
facet normal 7.763026868160277e-10 -1.0773582267532707e-16 1.0
  outer loop
    vertex -18.829629245428876 -253.70590477448755 7.0000000002967635
    vertex -18.839246390522042 -253.7789542438813 7.0000000003042295
    vertex -18.829629245428865 -256.2940952255127 7.0000000002967635
  endloop
endfacet
facet normal 7.763026868160277e-10 -1.0773582267532707e-16 1.0
  outer loop
    vertex -18.330127132905723 -252.50000000000006 6.999999999909001
    vertex -18.829629245428876 -253.70590477448755 7.0000000002967635
    vertex -18.829629245428865 -256.2940952255127 7.0000000002967635
  endloop
endfacet
facet normal 7.763026868160277e-10 -1.0773582267532707e-16 1.0
  outer loop
    vertex -18.330127132905705 -257.5000000000001 6.999999999909001
    vertex -18.330127132905723 -252.50000000000006 6.999999999909001
    vertex -18.829629245428865 -256.2940952255127 7.0000000002967635
  endloop
endfacet
facet normal 7.763026868160277e-10 -1.0773582267532707e-16 1.0
  outer loop
    vertex -17.53553401991639 -251.46446609406723 6.999999999292153
    vertex -18.330127132905723 -252.50000000000006 6.999999999909001
    vertex -18.330127132905705 -257.5000000000001 6.999999999909001
  endloop
endfacet
facet normal 7.763026868160277e-10 -1.0773582267532707e-16 1.0
  outer loop
    vertex -17.53553401991637 -258.5355339059327 6.99999999929215
    vertex -17.53553401991639 -251.46446609406723 6.999999999292153
    vertex -18.330127132905705 -257.5000000000001 6.999999999909001
  endloop
endfacet
facet normal 7.763026868160277e-10 -1.0773582267532707e-16 1.0
  outer loop
    vertex -16.97497602151853 -251.0343348135692 6.999999998856994
    vertex -17.53553401991639 -251.46446609406723 6.999999999292153
    vertex -17.53553401991637 -258.5355339059327 6.99999999929215
  endloop
endfacet
facet normal 7.763026868160277e-10 -1.0773582267532707e-16 1.0
  outer loop
    vertex -17.00000011398364 -255.00000000000003 6.99999999887642
    vertex -16.97497602151853 -251.0343348135692 6.999999998856994
    vertex -17.53553401991637 -258.5355339059327 6.99999999929215
  endloop
endfacet
facet normal 7.763026868160277e-10 -1.0773582267532707e-16 1.0
  outer loop
    vertex -16.8977775928508 -254.22354286469243 6.999999998797058
    vertex -16.97497602151853 -251.0343348135692 6.999999998856994
    vertex -17.00000011398364 -255.00000000000003 6.99999999887642
  endloop
endfacet
facet normal 7.763026868160277e-10 -1.0773582267532707e-16 1.0
  outer loop
    vertex -16.500000113983578 -250.6698729810779 6.9999999984882635
    vertex -16.97497602151853 -251.0343348135692 6.999999998856994
    vertex -16.8977775928508 -254.22354286469243 6.999999998797058
  endloop
endfacet
facet normal 7.763026868160277e-10 -1.0773582267532707e-16 1.0
  outer loop
    vertex -16.598076325336947 -253.5 6.9999999985644
    vertex -16.500000113983578 -250.6698729810779 6.9999999984882635
    vertex -16.8977775928508 -254.22354286469243 6.999999998797058
  endloop
endfacet
facet normal 7.763026868160277e-10 -1.0773582267532707e-16 1.0
  outer loop
    vertex -16.121320457543202 -252.87867965644043 6.999999998194293
    vertex -16.500000113983578 -250.6698729810779 6.9999999984882635
    vertex -16.598076325336947 -253.5 6.9999999985644
  endloop
endfacet
facet normal 7.763026868160277e-10 -1.0773582267532707e-16 1.0
  outer loop
    vertex -15.294095339496282 -250.17037086855456 6.999999997552114
    vertex -16.500000113983578 -250.6698729810779 6.9999999984882635
    vertex -16.121320457543202 -252.87867965644043 6.999999998194293
  endloop
endfacet
facet normal 7.763026868160277e-10 -1.0773582267532707e-16 1.0
  outer loop
    vertex -15.50000011398362 -252.40192378864668 6.999999997711964
    vertex -15.294095339496282 -250.17037086855456 6.999999997552114
    vertex -16.121320457543202 -252.87867965644043 6.999999998194293
  endloop
endfacet
facet normal 7.763026868160277e-10 -1.0773582267532707e-16 1.0
  outer loop
    vertex -14.776457249291203 -252.10222252113283 6.9999999971502715
    vertex -15.294095339496282 -250.17037086855456 6.999999997552114
    vertex -15.50000011398362 -252.40192378864668 6.999999997711964
  endloop
endfacet
facet normal 7.763026868160277e-10 -1.0773582267532707e-16 1.0
  outer loop
    vertex -14.000000113983607 -249.99999999999991 6.9999999965475075
    vertex -15.294095339496282 -250.17037086855456 6.999999997552114
    vertex -14.776457249291203 -252.10222252113283 6.9999999971502715
  endloop
endfacet
facet normal 7.763026868160277e-10 -1.0773582267532707e-16 1.0
  outer loop
    vertex -14.000000113983601 -252.0 6.999999996547509
    vertex -14.000000113983607 -249.99999999999991 6.9999999965475075
    vertex -14.776457249291203 -252.10222252113283 6.9999999971502715
  endloop
endfacet
facet normal 7.763026868160277e-10 -1.0773582267532707e-16 1.0
  outer loop
    vertex -13.000000113983605 -249.99999999999991 6.99999999577121
    vertex -14.000000113983607 -249.99999999999991 6.9999999965475075
    vertex -14.000000113983601 -252.0 6.999999996547509
  endloop
endfacet
facet normal 7.763026868160277e-10 -1.0773582267532707e-16 1.0
  outer loop
    vertex -13.000000113983594 -252.0 6.999999995771208
    vertex -13.000000113983605 -249.99999999999991 6.99999999577121
    vertex -14.000000113983601 -252.0 6.999999996547509
  endloop
endfacet
facet normal 7.763026868160277e-10 -1.0773582267532707e-16 1.0
  outer loop
    vertex -17.53553401991637 -258.5355339059327 6.99999999929215
    vertex -16.50000011398355 -259.33012701892227 6.9999999984882635
    vertex -17.00000011398364 -255.00000000000003 6.99999999887642
  endloop
endfacet
facet normal 7.763026868160277e-10 -1.0773582267532707e-16 1.0
  outer loop
    vertex -16.897777592850794 -255.77645713530762 6.999999998797058
    vertex -17.00000011398364 -255.00000000000003 6.99999999887642
    vertex -16.50000011398355 -259.33012701892227 6.9999999984882635
  endloop
endfacet
facet normal 7.763026868160277e-10 -1.0773582267532707e-16 1.0
  outer loop
    vertex -16.835675885347605 -255.92638391980816 6.999999998748849
    vertex -16.897777592850794 -255.77645713530762 6.999999998797058
    vertex -16.50000011398355 -259.33012701892227 6.9999999984882635
  endloop
endfacet
facet normal 7.763026868160277e-10 -1.0773582267532707e-16 1.0
  outer loop
    vertex -16.598076325336933 -256.50000000000006 6.999999998564402
    vertex -16.835675885347605 -255.92638391980816 6.999999998748849
    vertex -16.50000011398355 -259.33012701892227 6.9999999984882635
  endloop
endfacet
facet normal 7.763026868160277e-10 -1.0773582267532707e-16 1.0
  outer loop
    vertex -16.121320457543185 -257.12132034355966 6.999999998194293
    vertex -16.598076325336933 -256.50000000000006 6.999999998564402
    vertex -16.50000011398355 -259.33012701892227 6.9999999984882635
  endloop
endfacet
facet normal 7.763026868160277e-10 -1.0773582267532707e-16 1.0
  outer loop
    vertex -15.294095339496243 -259.8296291314453 6.999999997552113
    vertex -16.121320457543185 -257.12132034355966 6.999999998194293
    vertex -16.50000011398355 -259.33012701892227 6.9999999984882635
  endloop
endfacet
facet normal 7.763026868160277e-10 -1.0773582267532707e-16 1.0
  outer loop
    vertex -15.500000113983603 -257.59807621135326 6.999999997711964
    vertex -16.121320457543185 -257.12132034355966 6.999999998194293
    vertex -15.294095339496243 -259.8296291314453 6.999999997552113
  endloop
endfacet
facet normal 7.763026868160277e-10 -1.0773582267532707e-16 1.0
  outer loop
    vertex -15.134857827043627 -257.7493230987997 6.9999999974285005
    vertex -15.500000113983603 -257.59807621135326 6.999999997711964
    vertex -15.294095339496243 -259.8296291314453 6.999999997552113
  endloop
endfacet
facet normal 7.763026868160277e-10 -1.0773582267532707e-16 1.0
  outer loop
    vertex -14.000000113983573 -260.0 6.999999996547507
    vertex -15.134857827043627 -257.7493230987997 6.9999999974285005
    vertex -15.294095339496243 -259.8296291314453 6.999999997552113
  endloop
endfacet
facet normal 7.763026868160277e-10 -1.0773582267532707e-16 1.0
  outer loop
    vertex -14.77645724929118 -257.8977774788672 6.999999997150272
    vertex -15.134857827043627 -257.7493230987997 6.9999999974285005
    vertex -14.000000113983573 -260.0 6.999999996547507
  endloop
endfacet
facet normal 7.763026868160277e-10 -1.0773582267532707e-16 1.0
  outer loop
    vertex -14.000000113983578 -258.0 6.999999996547509
    vertex -14.77645724929118 -257.8977774788672 6.999999997150272
    vertex -14.000000113983573 -260.0 6.999999996547507
  endloop
endfacet
facet normal 7.763026868160277e-10 -1.0773582267532707e-16 1.0
  outer loop
    vertex -13.000000113983576 -258.0 6.99999999577121
    vertex -14.000000113983578 -258.0 6.999999996547509
    vertex -14.000000113983573 -260.0 6.999999996547507
  endloop
endfacet
facet normal 7.763026868160277e-10 -1.0773582267532707e-16 1.0
  outer loop
    vertex -13.000000113983571 -260.0 6.999999995771209
    vertex -13.000000113983576 -258.0 6.99999999577121
    vertex -14.000000113983573 -260.0 6.999999996547507
  endloop
endfacet
facet normal 0.38268343236501545 0.9238795325113176 -2.970746687025559e-10
  outer loop
    vertex -15.13485783014882 -257.7493230987997 2.999999997428505
    vertex -15.500000117088792 -257.59807621135326 2.9999999977119653
    vertex -15.134857827043627 -257.7493230987997 6.9999999974285005
  endloop
endfacet
facet normal 0.38268343236501545 0.9238795325113176 -2.970746687025559e-10
  outer loop
    vertex -15.500000113983603 -257.59807621135326 6.999999997711964
    vertex -15.134857827043627 -257.7493230987997 6.9999999974285005
    vertex -15.500000117088792 -257.59807621135326 2.9999999977119653
  endloop
endfacet
facet normal 0.13052619222009473 -0.9914448613738048 -1.0132672993221214e-10
  outer loop
    vertex -14.000000117088792 -252.0 2.999999996547511
    vertex -14.000000113983601 -252.0 6.999999996547509
    vertex -14.776457252396394 -252.10222252113283 2.9999999971502747
  endloop
endfacet
facet normal 0.13052619222009473 -0.9914448613738048 -1.0132672993221214e-10
  outer loop
    vertex -14.776457249291203 -252.10222252113283 6.9999999971502715
    vertex -14.776457252396394 -252.10222252113283 2.9999999971502747
    vertex -14.000000113983601 -252.0 6.999999996547509
  endloop
endfacet
facet normal 0.793353340291165 -0.6087614290088122 -6.158750706624534e-10
  outer loop
    vertex -16.12132046064839 -252.87867965644043 2.9999999981942955
    vertex -16.121320457543202 -252.87867965644043 6.999999998194293
    vertex -16.59807632844213 -253.5 2.9999999985644044
  endloop
endfacet
facet normal 0.793353340291165 -0.6087614290088122 -6.158750706624534e-10
  outer loop
    vertex -16.598076325336947 -253.5 6.9999999985644
    vertex -16.59807632844213 -253.5 2.9999999985644044
    vertex -16.121320457543202 -252.87867965644043 6.999999998194293
  endloop
endfacet
facet normal 0.3826834323653157 0.9238795325111933 -2.970749393196512e-10
  outer loop
    vertex -14.776457252396375 -257.8977774788672 2.9999999971502747
    vertex -15.13485783014882 -257.7493230987997 2.999999997428505
    vertex -14.77645724929118 -257.8977774788672 6.999999997150272
  endloop
endfacet
facet normal 0.3826834323653157 0.9238795325111933 -2.970749393196512e-10
  outer loop
    vertex -15.134857827043627 -257.7493230987997 6.9999999974285005
    vertex -14.77645724929118 -257.8977774788672 6.999999997150272
    vertex -15.13485783014882 -257.7493230987997 2.999999997428505
  endloop
endfacet
facet normal 0.9238795325111171 0.38268343236549923 -7.172010772148653e-10
  outer loop
    vertex -16.897777595955983 -255.77645713530762 2.999999998797059
    vertex -16.897777592850794 -255.77645713530762 6.999999998797058
    vertex -16.835675888452794 -255.92638391980816 2.999999998748851
  endloop
endfacet
facet normal 0.9238795325111171 0.38268343236549923 -7.172010772148653e-10
  outer loop
    vertex -16.835675885347605 -255.92638391980816 6.999999998748849
    vertex -16.835675888452794 -255.92638391980816 2.999999998748851
    vertex -16.897777592850794 -255.77645713530762 6.999999998797058
  endloop
endfacet
facet normal 0.3826834323650671 -0.9238795325112962 -2.9707466870259596e-10
  outer loop
    vertex -14.776457252396394 -252.10222252113283 2.9999999971502747
    vertex -14.776457249291203 -252.10222252113283 6.9999999971502715
    vertex -15.50000011708881 -252.40192378864668 2.9999999977119653
  endloop
endfacet
facet normal 0.3826834323650671 -0.9238795325112962 -2.9707466870259596e-10
  outer loop
    vertex -15.50000011398362 -252.40192378864668 6.999999997711964
    vertex -15.50000011708881 -252.40192378864668 2.9999999977119653
    vertex -14.776457249291203 -252.10222252113283 6.9999999971502715
  endloop
endfacet
facet normal 0.60876142900874 0.7933533402912203 -4.725775683025552e-10
  outer loop
    vertex -15.500000117088792 -257.59807621135326 2.9999999977119653
    vertex -16.12132046064838 -257.12132034355966 2.9999999981942955
    vertex -15.500000113983603 -257.59807621135326 6.999999997711964
  endloop
endfacet
facet normal 0.60876142900874 0.7933533402912203 -4.725775683025552e-10
  outer loop
    vertex -16.121320457543185 -257.12132034355966 6.999999998194293
    vertex -15.500000113983603 -257.59807621135326 6.999999997711964
    vertex -16.12132046064838 -257.12132034355966 2.9999999981942955
  endloop
endfacet
facet normal 0.9914448613738053 -0.13052619222009115 -7.696515500546535e-10
  outer loop
    vertex -16.89777759595599 -254.22354286469243 2.9999999987970605
    vertex -16.8977775928508 -254.22354286469243 6.999999998797058
    vertex -17.00000011708883 -255.00000000000003 2.999999998876422
  endloop
endfacet
facet normal 0.9914448613738053 -0.13052619222009115 -7.696515500546535e-10
  outer loop
    vertex -17.00000011398364 -255.00000000000003 6.99999999887642
    vertex -17.00000011708883 -255.00000000000003 2.999999998876422
    vertex -16.8977775928508 -254.22354286469243 6.999999998797058
  endloop
endfacet
facet normal 0.7933533402911632 0.6087614290088146 -6.158750706624519e-10
  outer loop
    vertex -16.598076328442126 -256.50000000000006 2.9999999985644044
    vertex -16.598076325336933 -256.50000000000006 6.999999998564402
    vertex -16.12132046064838 -257.12132034355966 2.9999999981942955
  endloop
endfacet
facet normal 0.7933533402911632 0.6087614290088146 -6.158750706624519e-10
  outer loop
    vertex -16.121320457543185 -257.12132034355966 6.999999998194293
    vertex -16.12132046064838 -257.12132034355966 2.9999999981942955
    vertex -16.598076325336933 -256.50000000000006 6.999999998564402
  endloop
endfacet
facet normal 0.9914448613738044 0.13052619222009829 -7.696515084212893e-10
  outer loop
    vertex -17.00000011708883 -255.00000000000003 2.999999998876422
    vertex -17.00000011398364 -255.00000000000003 6.99999999887642
    vertex -16.897777595955983 -255.77645713530762 2.999999998797059
  endloop
endfacet
facet normal 0.9914448613738044 0.13052619222009829 -7.696515084212893e-10
  outer loop
    vertex -16.897777592850794 -255.77645713530762 6.999999998797058
    vertex -16.897777595955983 -255.77645713530762 2.999999998797059
    vertex -17.00000011398364 -255.00000000000003 6.99999999887642
  endloop
endfacet
facet normal 0.9238795325112977 -0.3826834323650633 -7.172010633372177e-10
  outer loop
    vertex -16.59807632844213 -253.5 2.9999999985644044
    vertex -16.598076325336947 -253.5 6.9999999985644
    vertex -16.89777759595599 -254.22354286469243 2.9999999987970605
  endloop
endfacet
facet normal 0.9238795325112977 -0.3826834323650633 -7.172010633372177e-10
  outer loop
    vertex -16.8977775928508 -254.22354286469243 6.999999998797058
    vertex -16.89777759595599 -254.22354286469243 2.9999999987970605
    vertex -16.598076325336947 -253.5 6.9999999985644
  endloop
endfacet
facet normal -7.763026705097627e-10 4.889512543534042e-17 -1.0
  outer loop
    vertex -17.53553402302156 -258.5355339059327 2.9999999992921556
    vertex -17.00000011708883 -255.00000000000003 2.999999998876422
    vertex -16.50000011708874 -259.33012701892227 2.9999999984882635
  endloop
endfacet
facet normal -7.763026705097627e-10 4.889512543534042e-17 -1.0
  outer loop
    vertex -16.897777595955983 -255.77645713530762 2.999999998797059
    vertex -16.50000011708874 -259.33012701892227 2.9999999984882635
    vertex -17.00000011708883 -255.00000000000003 2.999999998876422
  endloop
endfacet
facet normal -7.763026705097627e-10 4.889512543534042e-17 -1.0
  outer loop
    vertex -16.835675888452794 -255.92638391980816 2.999999998748851
    vertex -16.50000011708874 -259.33012701892227 2.9999999984882635
    vertex -16.897777595955983 -255.77645713530762 2.999999998797059
  endloop
endfacet
facet normal -7.763026705097627e-10 4.889512543534042e-17 -1.0
  outer loop
    vertex -16.598076328442126 -256.50000000000006 2.9999999985644044
    vertex -16.50000011708874 -259.33012701892227 2.9999999984882635
    vertex -16.835675888452794 -255.92638391980816 2.999999998748851
  endloop
endfacet
facet normal -7.763026705097627e-10 4.889512543534042e-17 -1.0
  outer loop
    vertex -16.12132046064838 -257.12132034355966 2.9999999981942955
    vertex -16.50000011708874 -259.33012701892227 2.9999999984882635
    vertex -16.598076328442126 -256.50000000000006 2.9999999985644044
  endloop
endfacet
facet normal -7.763026705097627e-10 4.889512543534042e-17 -1.0
  outer loop
    vertex -15.294095342601434 -259.8296291314453 2.9999999975521154
    vertex -16.50000011708874 -259.33012701892227 2.9999999984882635
    vertex -16.12132046064838 -257.12132034355966 2.9999999981942955
  endloop
endfacet
facet normal -7.763026705097627e-10 4.889512543534042e-17 -1.0
  outer loop
    vertex -15.500000117088792 -257.59807621135326 2.9999999977119653
    vertex -15.294095342601434 -259.8296291314453 2.9999999975521154
    vertex -16.12132046064838 -257.12132034355966 2.9999999981942955
  endloop
endfacet
facet normal -7.763026705097627e-10 4.889512543534042e-17 -1.0
  outer loop
    vertex -15.13485783014882 -257.7493230987997 2.999999997428505
    vertex -15.294095342601434 -259.8296291314453 2.9999999975521154
    vertex -15.500000117088792 -257.59807621135326 2.9999999977119653
  endloop
endfacet
facet normal -7.763026705097627e-10 4.889512543534042e-17 -1.0
  outer loop
    vertex -14.000000117088764 -260.0 2.999999996547511
    vertex -15.294095342601434 -259.8296291314453 2.9999999975521154
    vertex -15.13485783014882 -257.7493230987997 2.999999997428505
  endloop
endfacet
facet normal -7.763026705097627e-10 4.889512543534042e-17 -1.0
  outer loop
    vertex -14.776457252396375 -257.8977774788672 2.9999999971502747
    vertex -14.000000117088764 -260.0 2.999999996547511
    vertex -15.13485783014882 -257.7493230987997 2.999999997428505
  endloop
endfacet
facet normal -7.763026705097627e-10 4.889512543534042e-17 -1.0
  outer loop
    vertex -14.00000011708877 -258.0 2.999999996547511
    vertex -14.000000117088764 -260.0 2.999999996547511
    vertex -14.776457252396375 -257.8977774788672 2.9999999971502747
  endloop
endfacet
facet normal -7.763026705097627e-10 4.889512543534042e-17 -1.0
  outer loop
    vertex -13.000000117088765 -258.0 2.9999999957712125
    vertex -14.000000117088764 -260.0 2.999999996547511
    vertex -14.00000011708877 -258.0 2.999999996547511
  endloop
endfacet
facet normal -7.763026705097627e-10 4.889512543534042e-17 -1.0
  outer loop
    vertex -13.00000011708876 -260.0 2.9999999957712125
    vertex -14.000000117088764 -260.0 2.999999996547511
    vertex -13.000000117088765 -258.0 2.9999999957712125
  endloop
endfacet
facet normal -7.763026705097627e-10 4.889512543534042e-17 -1.0
  outer loop
    vertex -19.000000117088724 -255.00000000000003 3.0000000004290284
    vertex -18.83924639362724 -253.7789542438813 3.000000000304233
    vertex -18.829629248534058 -256.2940952255127 3.0000000002967675
  endloop
endfacet
facet normal -7.763026705097627e-10 4.889512543534042e-17 -1.0
  outer loop
    vertex -18.82962924853407 -253.70590477448755 3.000000000296766
    vertex -18.829629248534058 -256.2940952255127 3.0000000002967675
    vertex -18.83924639362724 -253.7789542438813 3.000000000304233
  endloop
endfacet
facet normal -7.763026705097627e-10 4.889512543534042e-17 -1.0
  outer loop
    vertex -18.330127136010912 -252.50000000000006 2.9999999999090043
    vertex -18.829629248534058 -256.2940952255127 3.0000000002967675
    vertex -18.82962924853407 -253.70590477448755 3.000000000296766
  endloop
endfacet
facet normal -7.763026705097627e-10 4.889512543534042e-17 -1.0
  outer loop
    vertex -18.330127136010894 -257.5000000000001 2.9999999999090043
    vertex -18.829629248534058 -256.2940952255127 3.0000000002967675
    vertex -18.330127136010912 -252.50000000000006 2.9999999999090043
  endloop
endfacet
facet normal -7.763026705097627e-10 4.889512543534042e-17 -1.0
  outer loop
    vertex -17.535534023021583 -251.46446609406723 2.9999999992921556
    vertex -18.330127136010894 -257.5000000000001 2.9999999999090043
    vertex -18.330127136010912 -252.50000000000006 2.9999999999090043
  endloop
endfacet
facet normal -7.763026705097627e-10 4.889512543534042e-17 -1.0
  outer loop
    vertex -17.53553402302156 -258.5355339059327 2.9999999992921556
    vertex -18.330127136010894 -257.5000000000001 2.9999999999090043
    vertex -17.535534023021583 -251.46446609406723 2.9999999992921556
  endloop
endfacet
facet normal -7.763026705097627e-10 4.889512543534042e-17 -1.0
  outer loop
    vertex -16.974976024623718 -251.0343348135692 2.9999999988569943
    vertex -17.53553402302156 -258.5355339059327 2.9999999992921556
    vertex -17.535534023021583 -251.46446609406723 2.9999999992921556
  endloop
endfacet
facet normal -7.763026705097627e-10 4.889512543534042e-17 -1.0
  outer loop
    vertex -17.00000011708883 -255.00000000000003 2.999999998876422
    vertex -17.53553402302156 -258.5355339059327 2.9999999992921556
    vertex -16.974976024623718 -251.0343348135692 2.9999999988569943
  endloop
endfacet
facet normal -7.763026705097627e-10 4.889512543534042e-17 -1.0
  outer loop
    vertex -16.89777759595599 -254.22354286469243 2.9999999987970605
    vertex -17.00000011708883 -255.00000000000003 2.999999998876422
    vertex -16.974976024623718 -251.0343348135692 2.9999999988569943
  endloop
endfacet
facet normal -7.763026705097627e-10 4.889512543534042e-17 -1.0
  outer loop
    vertex -16.500000117088767 -250.6698729810779 2.9999999984882653
    vertex -16.89777759595599 -254.22354286469243 2.9999999987970605
    vertex -16.974976024623718 -251.0343348135692 2.9999999988569943
  endloop
endfacet
facet normal -7.763026705097627e-10 4.889512543534042e-17 -1.0
  outer loop
    vertex -16.59807632844213 -253.5 2.9999999985644044
    vertex -16.89777759595599 -254.22354286469243 2.9999999987970605
    vertex -16.500000117088767 -250.6698729810779 2.9999999984882653
  endloop
endfacet
facet normal -7.763026705097627e-10 4.889512543534042e-17 -1.0
  outer loop
    vertex -16.12132046064839 -252.87867965644043 2.9999999981942955
    vertex -16.59807632844213 -253.5 2.9999999985644044
    vertex -16.500000117088767 -250.6698729810779 2.9999999984882653
  endloop
endfacet
facet normal -7.763026705097627e-10 4.889512543534042e-17 -1.0
  outer loop
    vertex -15.294095342601468 -250.17037086855456 2.9999999975521154
    vertex -16.12132046064839 -252.87867965644043 2.9999999981942955
    vertex -16.500000117088767 -250.6698729810779 2.9999999984882653
  endloop
endfacet
facet normal -7.763026705097627e-10 4.889512543534042e-17 -1.0
  outer loop
    vertex -15.50000011708881 -252.40192378864668 2.9999999977119653
    vertex -16.12132046064839 -252.87867965644043 2.9999999981942955
    vertex -15.294095342601468 -250.17037086855456 2.9999999975521154
  endloop
endfacet
facet normal -7.763026705097627e-10 4.889512543534042e-17 -1.0
  outer loop
    vertex -14.776457252396394 -252.10222252113283 2.9999999971502747
    vertex -15.50000011708881 -252.40192378864668 2.9999999977119653
    vertex -15.294095342601468 -250.17037086855456 2.9999999975521154
  endloop
endfacet
facet normal -7.763026705097627e-10 4.889512543534042e-17 -1.0
  outer loop
    vertex -14.000000117088797 -249.99999999999991 2.999999996547511
    vertex -14.776457252396394 -252.10222252113283 2.9999999971502747
    vertex -15.294095342601468 -250.17037086855456 2.9999999975521154
  endloop
endfacet
facet normal -7.763026705097627e-10 4.889512543534042e-17 -1.0
  outer loop
    vertex -14.000000117088792 -252.0 2.999999996547511
    vertex -14.776457252396394 -252.10222252113283 2.9999999971502747
    vertex -14.000000117088797 -249.99999999999991 2.999999996547511
  endloop
endfacet
facet normal -7.763026705097627e-10 4.889512543534042e-17 -1.0
  outer loop
    vertex -13.000000117088794 -249.99999999999991 2.9999999957712125
    vertex -14.000000117088792 -252.0 2.999999996547511
    vertex -14.000000117088797 -249.99999999999991 2.999999996547511
  endloop
endfacet
facet normal -7.763026705097627e-10 4.889512543534042e-17 -1.0
  outer loop
    vertex -13.000000117088788 -252.0 2.9999999957712125
    vertex -14.000000117088792 -252.0 2.999999996547511
    vertex -13.000000117088794 -249.99999999999991 2.9999999957712125
  endloop
endfacet
facet normal 0.6087614290088144 -0.7933533402911634 -4.725775683026131e-10
  outer loop
    vertex -16.12132046064839 -252.87867965644043 2.9999999981942955
    vertex -15.50000011708881 -252.40192378864668 2.9999999977119653
    vertex -16.121320457543202 -252.87867965644043 6.999999998194293
  endloop
endfacet
facet normal 0.6087614290088144 -0.7933533402911634 -4.725775683026131e-10
  outer loop
    vertex -15.50000011398362 -252.40192378864668 6.999999997711964
    vertex -16.121320457543202 -252.87867965644043 6.999999998194293
    vertex -15.50000011708881 -252.40192378864668 2.9999999977119653
  endloop
endfacet
facet normal 0.9238795325113417 0.38268343236495717 -7.172010633372518e-10
  outer loop
    vertex -16.835675888452794 -255.92638391980816 2.999999998748851
    vertex -16.835675885347605 -255.92638391980816 6.999999998748849
    vertex -16.598076328442126 -256.50000000000006 2.9999999985644044
  endloop
endfacet
facet normal 0.9238795325113417 0.38268343236495717 -7.172010633372518e-10
  outer loop
    vertex -16.598076325336933 -256.50000000000006 6.999999998564402
    vertex -16.598076328442126 -256.50000000000006 2.9999999985644044
    vertex -16.835675885347605 -255.92638391980816 6.999999998748849
  endloop
endfacet
facet normal 0.1305261922199812 0.9914448613738197 -1.0132663625705631e-10
  outer loop
    vertex -14.00000011708877 -258.0 2.999999996547511
    vertex -14.776457252396375 -257.8977774788672 2.9999999971502747
    vertex -14.000000113983578 -258.0 6.999999996547509
  endloop
endfacet
facet normal 0.1305261922199812 0.9914448613738197 -1.0132663625705631e-10
  outer loop
    vertex -14.77645724929118 -257.8977774788672 6.999999997150272
    vertex -14.000000113983578 -258.0 6.999999996547509
    vertex -14.776457252396375 -257.8977774788672 2.9999999971502747
  endloop
endfacet
facet normal -1.1636628575720046e-29 -1.0 4.3543425539033375e-29
  outer loop
    vertex -13.000000117088788 -252.0 2.9999999957712125
    vertex -13.000000113983594 -252.0 6.999999995771208
    vertex -14.000000117088792 -252.0 2.999999996547511
  endloop
endfacet
facet normal -1.1636628575720046e-29 -1.0 4.3543425539033375e-29
  outer loop
    vertex -14.000000113983601 -252.0 6.999999996547509
    vertex -14.000000117088792 -252.0 2.999999996547511
    vertex -13.000000113983594 -252.0 6.999999995771208
  endloop
endfacet
facet normal 1.1636628575720046e-29 1.0 -4.3543425539033375e-29
  outer loop
    vertex -13.000000117088765 -258.0 2.9999999957712125
    vertex -14.00000011708877 -258.0 2.999999996547511
    vertex -13.000000113983576 -258.0 6.99999999577121
  endloop
endfacet
facet normal 1.1636628575720046e-29 1.0 -4.3543425539033375e-29
  outer loop
    vertex -14.000000113983578 -258.0 6.999999996547509
    vertex -13.000000113983576 -258.0 6.99999999577121
    vertex -14.00000011708877 -258.0 2.999999996547511
  endloop
endfacet
facet normal -1.1636628575720046e-29 -1.0 4.3543425539033375e-29
  outer loop
    vertex -13.00000011708876 -260.0 2.9999999957712125
    vertex -13.000000113983571 -260.0 6.999999995771209
    vertex -14.000000117088764 -260.0 2.999999996547511
  endloop
endfacet
facet normal -1.1636628575720046e-29 -1.0 4.3543425539033375e-29
  outer loop
    vertex -14.000000113983573 -260.0 6.999999996547507
    vertex -14.000000117088764 -260.0 2.999999996547511
    vertex -13.000000113983571 -260.0 6.999999995771209
  endloop
endfacet
facet normal -1.0 -4.302192681411807e-15 7.762895187779511e-10
  outer loop
    vertex -13.000000112431 -249.99999999999991 8.999999995771205
    vertex -13.000000113983605 -249.99999999999991 6.99999999577121
    vertex -13.000000112430932 -289.9999999999999 8.999999995771205
  endloop
endfacet
facet normal -1.0 -4.302192681411807e-15 7.762895187779511e-10
  outer loop
    vertex -13.000000113983594 -252.0 6.999999995771208
    vertex -13.000000112430932 -289.9999999999999 8.999999995771205
    vertex -13.000000113983605 -249.99999999999991 6.99999999577121
  endloop
endfacet
facet normal -1.0 -4.302192681411807e-15 7.762895187779511e-10
  outer loop
    vertex -13.000000113983576 -258.0 6.99999999577121
    vertex -13.000000112430932 -289.9999999999999 8.999999995771205
    vertex -13.000000113983594 -252.0 6.999999995771208
  endloop
endfacet
facet normal -1.0 -4.302192681411807e-15 7.762895187779511e-10
  outer loop
    vertex -13.000000117088788 -252.0 2.9999999957712125
    vertex -13.000000113983576 -258.0 6.99999999577121
    vertex -13.000000113983594 -252.0 6.999999995771208
  endloop
endfacet
facet normal -1.0 -4.302192681411807e-15 7.762895187779511e-10
  outer loop
    vertex -13.000000113983571 -260.0 6.999999995771209
    vertex -13.000000112430932 -289.9999999999999 8.999999995771205
    vertex -13.000000113983576 -258.0 6.99999999577121
  endloop
endfacet
facet normal -1.0 -4.302192681411807e-15 7.762895187779511e-10
  outer loop
    vertex -13.00000011708876 -260.0 2.9999999957712125
    vertex -13.000000112430932 -289.9999999999999 8.999999995771205
    vertex -13.000000113983571 -260.0 6.999999995771209
  endloop
endfacet
facet normal -1.0 -4.302192681411807e-15 7.762895187779511e-10
  outer loop
    vertex -13.000000117088794 -249.99999999999991 2.9999999957712125
    vertex -13.000000118641402 -249.99999999999991 0.9999999957712138
    vertex -13.000000117088788 -252.0 2.9999999957712125
  endloop
endfacet
facet normal -1.0 -4.302192681411807e-15 7.762895187779511e-10
  outer loop
    vertex -13.000000118641163 -289.9999999999999 0.999999995771214
    vertex -13.000000117088788 -252.0 2.9999999957712125
    vertex -13.000000118641402 -249.99999999999991 0.9999999957712138
  endloop
endfacet
facet normal -1.0 -4.302192681411807e-15 7.762895187779511e-10
  outer loop
    vertex -13.000000117088765 -258.0 2.9999999957712125
    vertex -13.000000117088788 -252.0 2.9999999957712125
    vertex -13.000000118641163 -289.9999999999999 0.999999995771214
  endloop
endfacet
facet normal -1.0 -4.302192681411807e-15 7.762895187779511e-10
  outer loop
    vertex -13.000000113983576 -258.0 6.99999999577121
    vertex -13.000000117088788 -252.0 2.9999999957712125
    vertex -13.000000117088765 -258.0 2.9999999957712125
  endloop
endfacet
facet normal -1.0 -4.302192681411807e-15 7.762895187779511e-10
  outer loop
    vertex -13.00000011708876 -260.0 2.9999999957712125
    vertex -13.000000117088765 -258.0 2.9999999957712125
    vertex -13.000000118641163 -289.9999999999999 0.999999995771214
  endloop
endfacet
facet normal -1.0 -4.302192681411807e-15 7.762895187779511e-10
  outer loop
    vertex -13.000000112430932 -289.9999999999999 8.999999995771205
    vertex -13.00000011708876 -260.0 2.9999999957712125
    vertex -13.000000118641163 -289.9999999999999 0.999999995771214
  endloop
endfacet
facet normal -1.0 1.1636628609522741e-29 7.762984560732988e-10
  outer loop
    vertex -22.000000113913813 -245.99999999999991 7.089890347959105
    vertex -22.00000011715857 -245.99999999999991 2.910109657556677
    vertex -22.000000113913813 -249.99999999999991 7.089890347959105
  endloop
endfacet
facet normal -1.0 1.1636628609522741e-29 7.762984560732988e-10
  outer loop
    vertex -22.00000011715857 -249.99999999999991 2.910109657556677
    vertex -22.000000113913813 -249.99999999999991 7.089890347959105
    vertex -22.00000011715857 -245.99999999999991 2.910109657556677
  endloop
endfacet
facet normal -1.1636628540971214e-29 -1.0 4.354342554825245e-29
  outer loop
    vertex -17.500000119417688 -249.99999999999991 -7.35444074390073e-10
    vertex -13.000000118641402 -249.99999999999991 0.9999999957712138
    vertex -18.794095344798034 -249.99999999999991 0.17037086882381913
  endloop
endfacet
facet normal -1.1636628540971214e-29 -1.0 4.354342554825245e-29
  outer loop
    vertex -20.00000011889767 -249.99999999999991 0.6698729822831099
    vertex -18.794095344798034 -249.99999999999991 0.17037086882381913
    vertex -13.000000118641402 -249.99999999999991 0.9999999957712138
  endloop
endfacet
facet normal -1.1636628540971214e-29 -1.0 4.354342554825245e-29
  outer loop
    vertex -21.035534024213565 -249.99999999999991 1.4644660960764484
    vertex -20.00000011889767 -249.99999999999991 0.6698729822831099
    vertex -13.000000118641402 -249.99999999999991 0.9999999957712138
  endloop
endfacet
facet normal -1.1636628540971214e-29 -1.0 4.354342554825245e-29
  outer loop
    vertex -13.000000117088794 -249.99999999999991 2.9999999957712125
    vertex -21.035534024213565 -249.99999999999991 1.4644660960764484
    vertex -13.000000118641402 -249.99999999999991 0.9999999957712138
  endloop
endfacet
facet normal -1.1636628540971214e-29 -1.0 4.354342554825245e-29
  outer loop
    vertex -21.830127136399135 -249.99999999999991 2.5000000026260274
    vertex -21.035534024213565 -249.99999999999991 1.4644660960764484
    vertex -13.000000117088794 -249.99999999999991 2.9999999957712125
  endloop
endfacet
facet normal -1.1636628540971214e-29 -1.0 4.354342554825245e-29
  outer loop
    vertex -22.00000011715857 -249.99999999999991 2.910109657556677
    vertex -21.830127136399135 -249.99999999999991 2.5000000026260274
    vertex -13.000000117088794 -249.99999999999991 2.9999999957712125
  endloop
endfacet
facet normal -1.1636628540971214e-29 -1.0 4.354342554825245e-29
  outer loop
    vertex -14.000000117088797 -249.99999999999991 2.999999996547511
    vertex -22.00000011715857 -249.99999999999991 2.910109657556677
    vertex -13.000000117088794 -249.99999999999991 2.9999999957712125
  endloop
endfacet
facet normal -1.1636628540971214e-29 -1.0 4.354342554825245e-29
  outer loop
    vertex -22.000000113913813 -249.99999999999991 7.089890347959105
    vertex -22.00000011715857 -249.99999999999991 2.910109657556677
    vertex -14.000000117088797 -249.99999999999991 2.999999996547511
  endloop
endfacet
facet normal -1.1636628540971214e-29 -1.0 4.354342554825245e-29
  outer loop
    vertex -14.000000113983607 -249.99999999999991 6.9999999965475075
    vertex -22.000000113913813 -249.99999999999991 7.089890347959105
    vertex -14.000000117088797 -249.99999999999991 2.999999996547511
  endloop
endfacet
facet normal -1.1636628540971214e-29 -1.0 4.354342554825245e-29
  outer loop
    vertex -13.000000113983605 -249.99999999999991 6.99999999577121
    vertex -22.000000113913813 -249.99999999999991 7.089890347959105
    vertex -14.000000113983607 -249.99999999999991 6.9999999965475075
  endloop
endfacet
facet normal -1.1636628540971214e-29 -1.0 4.354342554825245e-29
  outer loop
    vertex -13.000000112431 -249.99999999999991 8.999999995771205
    vertex -22.000000113913813 -249.99999999999991 7.089890347959105
    vertex -13.000000113983605 -249.99999999999991 6.99999999577121
  endloop
endfacet
facet normal -1.1636628540971214e-29 -1.0 4.354342554825245e-29
  outer loop
    vertex -21.830127132517646 -249.99999999999991 7.500000002626028
    vertex -22.000000113913813 -249.99999999999991 7.089890347959105
    vertex -13.000000112431 -249.99999999999991 8.999999995771205
  endloop
endfacet
facet normal -1.1636628540971214e-29 -1.0 4.354342554825245e-29
  outer loop
    vertex -21.035534018724302 -249.99999999999991 8.535533907941916
    vertex -21.830127132517646 -249.99999999999991 7.500000002626028
    vertex -13.000000112431 -249.99999999999991 8.999999995771205
  endloop
endfacet
facet normal -1.1636628540971214e-29 -1.0 4.354342554825245e-29
  outer loop
    vertex -20.000000112174725 -249.99999999999991 9.330127020127488
    vertex -21.035534018724302 -249.99999999999991 8.535533907941916
    vertex -13.000000112431 -249.99999999999991 8.999999995771205
  endloop
endfacet
facet normal -1.1636628540971214e-29 -1.0 4.354342554825245e-29
  outer loop
    vertex -17.500000111654703 -249.99999999999991 9.99999999926455
    vertex -20.000000112174725 -249.99999999999991 9.330127020127488
    vertex -13.000000112431 -249.99999999999991 8.999999995771205
  endloop
endfacet
facet normal -1.1636628540971214e-29 -1.0 4.354342554825245e-29
  outer loop
    vertex -18.794095337299563 -249.99999999999991 9.829629131714494
    vertex -20.000000112174725 -249.99999999999991 9.330127020127488
    vertex -17.500000111654703 -249.99999999999991 9.99999999926455
  endloop
endfacet
facet normal 1.1636628575720046e-29 1.0 -4.3543425539033375e-29
  outer loop
    vertex -17.500000118796653 -248.99999999999991 0.7999999992645568
    vertex -18.58704010811614 -248.99999999999991 0.9431115296943382
    vertex -16.412960129254966 -248.99999999999991 0.9431115280066017
  endloop
endfacet
facet normal 1.1636628575720046e-29 1.0 -4.3543425539033375e-29
  outer loop
    vertex -15.400000118359836 -248.99999999999991 1.3626933017396865
    vertex -16.412960129254966 -248.99999999999991 0.9431115280066017
    vertex -18.58704010811614 -248.99999999999991 0.9431115296943382
  endloop
endfacet
facet normal 1.1636628575720046e-29 1.0 -4.3543425539033375e-29
  outer loop
    vertex -19.600000118359834 -248.99999999999991 1.3626933050001413
    vertex -15.400000118359836 -248.99999999999991 1.3626933017396865
    vertex -18.58704010811614 -248.99999999999991 0.9431115296943382
  endloop
endfacet
facet normal 1.1636628575720046e-29 1.0 -4.3543425539033375e-29
  outer loop
    vertex -14.530151636858186 -248.99999999999991 2.0301515159755654
    vertex -15.400000118359836 -248.99999999999991 1.3626933017396865
    vertex -19.600000118359834 -248.99999999999991 1.3626933050001413
  endloop
endfacet
facet normal 1.1636628575720046e-29 1.0 -4.3543425539033375e-29
  outer loop
    vertex -20.469848598825187 -248.99999999999991 2.0301515205865437
    vertex -14.530151636858186 -248.99999999999991 2.0301515159755654
    vertex -19.600000118359834 -248.99999999999991 1.3626933050001413
  endloop
endfacet
facet normal 1.1636628575720046e-29 1.0 -4.3543425539033375e-29
  outer loop
    vertex -13.86269342127178 -248.99999999999991 2.8999999964409167
    vertex -14.530151636858186 -248.99999999999991 2.0301515159755654
    vertex -20.469848598825187 -248.99999999999991 2.0301515205865437
  endloop
endfacet
facet normal 1.1636628575720046e-29 1.0 -4.3543425539033375e-29
  outer loop
    vertex -21.137306813061066 -248.99999999999991 2.9000000020881895
    vertex -13.86269342127178 -248.99999999999991 2.8999999964409167
    vertex -20.469848598825187 -248.99999999999991 2.0301515205865437
  endloop
endfacet
facet normal 1.1636628575720046e-29 1.0 -4.3543425539033375e-29
  outer loop
    vertex -13.443111645965978 -248.99999999999991 3.9129600066846084
    vertex -13.86269342127178 -248.99999999999991 2.8999999964409167
    vertex -21.137306813061066 -248.99999999999991 2.9000000020881895
  endloop
endfacet
facet normal 1.1636628575720046e-29 1.0 -4.3543425539033375e-29
  outer loop
    vertex -21.556888586794155 -248.99999999999991 3.9129600129833246
    vertex -13.443111645965978 -248.99999999999991 3.9129600066846084
    vertex -21.137306813061066 -248.99999999999991 2.9000000020881895
  endloop
endfacet
facet normal 1.1636628575720046e-29 1.0 -4.3543425539033375e-29
  outer loop
    vertex -13.300000115536196 -248.99999999999991 4.999999996004103
    vertex -13.443111645965978 -248.99999999999991 3.9129600066846084
    vertex -21.556888586794155 -248.99999999999991 3.9129600129833246
  endloop
endfacet
facet normal 1.1636628575720046e-29 1.0 -4.3543425539033375e-29
  outer loop
    vertex -21.70000011553619 -248.99999999999991 5.000000002525004
    vertex -13.300000115536196 -248.99999999999991 4.999999996004103
    vertex -21.556888586794155 -248.99999999999991 3.9129600129833246
  endloop
endfacet
facet normal 1.1636628575720046e-29 1.0 -4.3543425539033375e-29
  outer loop
    vertex -21.556888585106417 -248.99999999999991 6.0870399918445015
    vertex -13.300000115536196 -248.99999999999991 4.999999996004103
    vertex -21.70000011553619 -248.99999999999991 5.000000002525004
  endloop
endfacet
facet normal 1.1636628575720046e-29 1.0 -4.3543425539033375e-29
  outer loop
    vertex -13.443111644278241 -248.99999999999991 6.087039985545782
    vertex -13.300000115536196 -248.99999999999991 4.999999996004103
    vertex -21.556888585106417 -248.99999999999991 6.0870399918445015
  endloop
endfacet
facet normal 1.1636628575720046e-29 1.0 -4.3543425539033375e-29
  outer loop
    vertex -13.862693418011323 -248.99999999999991 7.09999999644091
    vertex -13.443111644278241 -248.99999999999991 6.087039985545782
    vertex -21.556888585106417 -248.99999999999991 6.0870399918445015
  endloop
endfacet
facet normal 1.1636628575720046e-29 1.0 -4.3543425539033375e-29
  outer loop
    vertex -21.13730680980061 -248.99999999999991 7.1000000020881915
    vertex -13.862693418011323 -248.99999999999991 7.09999999644091
    vertex -21.556888585106417 -248.99999999999991 6.0870399918445015
  endloop
endfacet
facet normal 1.1636628575720046e-29 1.0 -4.3543425539033375e-29
  outer loop
    vertex -14.530151632247202 -248.99999999999991 7.969848477942564
    vertex -13.862693418011323 -248.99999999999991 7.09999999644091
    vertex -21.13730680980061 -248.99999999999991 7.1000000020881915
  endloop
endfacet
facet normal 1.1636628575720046e-29 1.0 -4.3543425539033375e-29
  outer loop
    vertex -20.4698485942142 -248.99999999999991 7.969848482553537
    vertex -14.530151632247202 -248.99999999999991 7.969848477942564
    vertex -21.13730680980061 -248.99999999999991 7.1000000020881915
  endloop
endfacet
facet normal 1.1636628575720046e-29 1.0 -4.3543425539033375e-29
  outer loop
    vertex -19.600000112712557 -248.99999999999991 8.637306696789423
    vertex -14.530151632247202 -248.99999999999991 7.969848477942564
    vertex -20.4698485942142 -248.99999999999991 7.969848482553537
  endloop
endfacet
facet normal 1.1636628575720046e-29 1.0 -4.3543425539033375e-29
  outer loop
    vertex -15.40000011271256 -248.99999999999991 8.637306693528961
    vertex -14.530151632247202 -248.99999999999991 7.969848477942564
    vertex -19.600000112712557 -248.99999999999991 8.637306696789423
  endloop
endfacet
facet normal 1.1636628575720046e-29 1.0 -4.3543425539033375e-29
  outer loop
    vertex -16.412960122956253 -248.99999999999991 9.056888468834766
    vertex -15.40000011271256 -248.99999999999991 8.637306693528961
    vertex -19.600000112712557 -248.99999999999991 8.637306696789423
  endloop
endfacet
facet normal 1.1636628575720046e-29 1.0 -4.3543425539033375e-29
  outer loop
    vertex -18.587040101817426 -248.99999999999991 9.056888470522509
    vertex -16.412960122956253 -248.99999999999991 9.056888468834766
    vertex -19.600000112712557 -248.99999999999991 8.637306696789423
  endloop
endfacet
facet normal 1.1636628575720046e-29 1.0 -4.3543425539033375e-29
  outer loop
    vertex -17.50000011227574 -248.99999999999991 9.199999999264547
    vertex -16.412960122956253 -248.99999999999991 9.056888468834766
    vertex -18.587040101817426 -248.99999999999991 9.056888470522509
  endloop
endfacet
facet normal 0.991444861475138 -5.8535181079786115e-30 0.1305261914503926
  outer loop
    vertex -21.556888586794155 -245.99999999999991 3.9129600129833246
    vertex -21.70000011553619 -245.99999999999991 5.000000002525004
    vertex -21.556888586794155 -248.99999999999991 3.9129600129833246
  endloop
endfacet
facet normal 0.991444861475138 -5.8535181079786115e-30 0.1305261914503926
  outer loop
    vertex -21.70000011553619 -248.99999999999991 5.000000002525004
    vertex -21.556888586794155 -248.99999999999991 3.9129600129833246
    vertex -21.70000011553619 -245.99999999999991 5.000000002525004
  endloop
endfacet
facet normal 0.9914448612724835 -1.722063316927496e-29 -0.1305261929897064
  outer loop
    vertex -21.70000011553619 -245.99999999999991 5.000000002525004
    vertex -21.556888585106417 -245.99999999999991 6.0870399918445015
    vertex -21.70000011553619 -248.99999999999991 5.000000002525004
  endloop
endfacet
facet normal 0.9914448612724835 -1.722063316927496e-29 -0.1305261929897064
  outer loop
    vertex -21.556888585106417 -248.99999999999991 6.0870399918445015
    vertex -21.70000011553619 -248.99999999999991 5.000000002525004
    vertex -21.556888585106417 -245.99999999999991 6.0870399918445015
  endloop
endfacet
facet normal 0.9238795322142082 -2.741419053852756e-29 -0.3826834330823012
  outer loop
    vertex -21.556888585106417 -245.99999999999991 6.0870399918445015
    vertex -21.13730680980061 -245.99999999999991 7.1000000020881915
    vertex -21.556888585106417 -248.99999999999991 6.0870399918445015
  endloop
endfacet
facet normal 0.9238795322142082 -2.741419053852756e-29 -0.3826834330823012
  outer loop
    vertex -21.13730680980061 -248.99999999999991 7.1000000020881915
    vertex -21.556888585106417 -248.99999999999991 6.0870399918445015
    vertex -21.13730680980061 -245.99999999999991 7.1000000020881915
  endloop
endfacet
facet normal 0.7933533398186551 -3.573951612667094e-29 -0.6087614296245992
  outer loop
    vertex -21.13730680980061 -245.99999999999991 7.1000000020881915
    vertex -20.4698485942142 -245.99999999999991 7.969848482553537
    vertex -21.13730680980061 -248.99999999999991 7.1000000020881915
  endloop
endfacet
facet normal 0.7933533398186551 -3.573951612667094e-29 -0.6087614296245992
  outer loop
    vertex -20.4698485942142 -248.99999999999991 7.969848482553537
    vertex -21.13730680980061 -248.99999999999991 7.1000000020881915
    vertex -20.4698485942142 -245.99999999999991 7.969848482553537
  endloop
endfacet
facet normal 0.6087614283928419 -4.1629252753124885e-29 -0.7933533407638157
  outer loop
    vertex -20.4698485942142 -248.99999999999991 7.969848482553537
    vertex -20.4698485942142 -245.99999999999991 7.969848482553537
    vertex -19.600000112712557 -248.99999999999991 8.637306696789423
  endloop
endfacet
facet normal 0.6087614283928419 -4.1629252753124885e-29 -0.7933533407638157
  outer loop
    vertex -19.600000112712557 -245.99999999999991 8.637306696789423
    vertex -19.600000112712557 -248.99999999999991 8.637306696789423
    vertex -20.4698485942142 -245.99999999999991 7.969848482553537
  endloop
endfacet
facet normal 0.3826834316478837 -4.4682024600046274e-29 -0.9238795328083633
  outer loop
    vertex -19.600000112712557 -248.99999999999991 8.637306696789423
    vertex -19.600000112712557 -245.99999999999991 8.637306696789423
    vertex -18.587040101817426 -248.99999999999991 9.056888470522509
  endloop
endfacet
facet normal 0.3826834316478837 -4.4682024600046274e-29 -0.9238795328083633
  outer loop
    vertex -18.587040101817426 -245.99999999999991 9.056888470522509
    vertex -18.587040101817426 -248.99999999999991 9.056888470522509
    vertex -19.600000112712557 -245.99999999999991 8.637306696789423
  endloop
endfacet
facet normal 0.13052619145039396 -4.4689790311011474e-29 -0.9914448614751379
  outer loop
    vertex -18.587040101817426 -248.99999999999991 9.056888470522509
    vertex -18.587040101817426 -245.99999999999991 9.056888470522509
    vertex -17.50000011227574 -248.99999999999991 9.199999999264547
  endloop
endfacet
facet normal 0.13052619145039396 -4.4689790311011474e-29 -0.9914448614751379
  outer loop
    vertex -17.50000011227574 -245.99999999999991 9.199999999264547
    vertex -17.50000011227574 -248.99999999999991 9.199999999264547
    vertex -18.587040101817426 -245.99999999999991 9.056888470522509
  endloop
endfacet
facet normal -0.1305261929897091 -4.165202066565165e-29 -0.9914448612724831
  outer loop
    vertex -17.50000011227574 -248.99999999999991 9.199999999264547
    vertex -17.50000011227574 -245.99999999999991 9.199999999264547
    vertex -16.412960122956253 -248.99999999999991 9.056888468834766
  endloop
endfacet
facet normal -0.1305261929897091 -4.165202066565165e-29 -0.9914448612724831
  outer loop
    vertex -16.412960122956253 -245.99999999999991 9.056888468834766
    vertex -16.412960122956253 -248.99999999999991 9.056888468834766
    vertex -17.50000011227574 -245.99999999999991 9.199999999264547
  endloop
endfacet
facet normal -0.3826834330822963 -3.577573464514634e-29 -0.9238795322142102
  outer loop
    vertex -16.412960122956253 -248.99999999999991 9.056888468834766
    vertex -16.412960122956253 -245.99999999999991 9.056888468834766
    vertex -15.40000011271256 -248.99999999999991 8.637306693528961
  endloop
endfacet
facet normal -0.3826834330822963 -3.577573464514634e-29 -0.9238795322142102
  outer loop
    vertex -15.40000011271256 -245.99999999999991 8.637306693528961
    vertex -15.40000011271256 -248.99999999999991 8.637306693528961
    vertex -16.412960122956253 -245.99999999999991 9.056888468834766
  endloop
endfacet
facet normal -0.6087614296245993 -2.746139143077123e-29 -0.7933533398186549
  outer loop
    vertex -15.40000011271256 -248.99999999999991 8.637306693528961
    vertex -15.40000011271256 -245.99999999999991 8.637306693528961
    vertex -14.530151632247202 -248.99999999999991 7.969848477942564
  endloop
endfacet
facet normal -0.6087614296245993 -2.746139143077123e-29 -0.7933533398186549
  outer loop
    vertex -14.530151632247202 -245.99999999999991 7.969848477942564
    vertex -14.530151632247202 -248.99999999999991 7.969848477942564
    vertex -15.40000011271256 -245.99999999999991 8.637306693528961
  endloop
endfacet
facet normal -0.7933533407638161 -1.727559977248409e-29 -0.6087614283928412
  outer loop
    vertex -14.530151632247202 -245.99999999999991 7.969848477942564
    vertex -13.862693418011323 -245.99999999999991 7.09999999644091
    vertex -14.530151632247202 -248.99999999999991 7.969848477942564
  endloop
endfacet
facet normal -0.7933533407638161 -1.727559977248409e-29 -0.6087614283928412
  outer loop
    vertex -13.862693418011323 -248.99999999999991 7.09999999644091
    vertex -14.530151632247202 -248.99999999999991 7.969848477942564
    vertex -13.862693418011323 -245.99999999999991 7.09999999644091
  endloop
endfacet
facet normal -0.9238795328083634 -5.9125045389806964e-30 -0.3826834316478835
  outer loop
    vertex -13.862693418011323 -245.99999999999991 7.09999999644091
    vertex -13.443111644278241 -245.99999999999991 6.087039985545782
    vertex -13.862693418011323 -248.99999999999991 7.09999999644091
  endloop
endfacet
facet normal -0.9238795328083634 -5.9125045389806964e-30 -0.3826834316478835
  outer loop
    vertex -13.443111644278241 -248.99999999999991 6.087039985545782
    vertex -13.862693418011323 -248.99999999999991 7.09999999644091
    vertex -13.443111644278241 -245.99999999999991 6.087039985545782
  endloop
endfacet
facet normal -0.991444861475138 5.853518107978607e-30 -0.13052619145039268
  outer loop
    vertex -13.443111644278241 -245.99999999999991 6.087039985545782
    vertex -13.300000115536196 -245.99999999999991 4.999999996004103
    vertex -13.443111644278241 -248.99999999999991 6.087039985545782
  endloop
endfacet
facet normal -0.991444861475138 5.853518107978607e-30 -0.13052619145039268
  outer loop
    vertex -13.300000115536196 -248.99999999999991 4.999999996004103
    vertex -13.443111644278241 -248.99999999999991 6.087039985545782
    vertex -13.300000115536196 -245.99999999999991 4.999999996004103
  endloop
endfacet
facet normal -0.9914448612724831 1.722063316927508e-29 0.13052619298970927
  outer loop
    vertex -13.300000115536196 -245.99999999999991 4.999999996004103
    vertex -13.443111645965978 -245.99999999999991 3.9129600066846084
    vertex -13.300000115536196 -248.99999999999991 4.999999996004103
  endloop
endfacet
facet normal -0.9914448612724831 1.722063316927508e-29 0.13052619298970927
  outer loop
    vertex -13.443111645965978 -248.99999999999991 3.9129600066846084
    vertex -13.300000115536196 -248.99999999999991 4.999999996004103
    vertex -13.443111645965978 -245.99999999999991 3.9129600066846084
  endloop
endfacet
facet normal -0.9238795322142103 2.741419053852737e-29 0.3826834330822961
  outer loop
    vertex -13.443111645965978 -245.99999999999991 3.9129600066846084
    vertex -13.86269342127178 -245.99999999999991 2.8999999964409167
    vertex -13.443111645965978 -248.99999999999991 3.9129600066846084
  endloop
endfacet
facet normal -0.9238795322142103 2.741419053852737e-29 0.3826834330822961
  outer loop
    vertex -13.86269342127178 -248.99999999999991 2.8999999964409167
    vertex -13.443111645965978 -248.99999999999991 3.9129600066846084
    vertex -13.86269342127178 -245.99999999999991 2.8999999964409167
  endloop
endfacet
facet normal -0.7933533398186544 3.573951612667096e-29 0.6087614296245998
  outer loop
    vertex -13.86269342127178 -245.99999999999991 2.8999999964409167
    vertex -14.530151636858186 -245.99999999999991 2.0301515159755654
    vertex -13.86269342127178 -248.99999999999991 2.8999999964409167
  endloop
endfacet
facet normal -0.7933533398186544 3.573951612667096e-29 0.6087614296245998
  outer loop
    vertex -14.530151636858186 -248.99999999999991 2.0301515159755654
    vertex -13.86269342127178 -248.99999999999991 2.8999999964409167
    vertex -14.530151636858186 -245.99999999999991 2.0301515159755654
  endloop
endfacet
facet normal -0.608761428392841 4.162925275312491e-29 0.7933533407638165
  outer loop
    vertex -15.400000118359836 -245.99999999999991 1.3626933017396865
    vertex -15.400000118359836 -248.99999999999991 1.3626933017396865
    vertex -14.530151636858186 -245.99999999999991 2.0301515159755654
  endloop
endfacet
facet normal -0.608761428392841 4.162925275312491e-29 0.7933533407638165
  outer loop
    vertex -14.530151636858186 -248.99999999999991 2.0301515159755654
    vertex -14.530151636858186 -245.99999999999991 2.0301515159755654
    vertex -15.400000118359836 -248.99999999999991 1.3626933017396865
  endloop
endfacet
facet normal -0.3826834316478837 4.4682024600046274e-29 0.9238795328083633
  outer loop
    vertex -16.412960129254966 -245.99999999999991 0.9431115280066017
    vertex -16.412960129254966 -248.99999999999991 0.9431115280066017
    vertex -15.400000118359836 -245.99999999999991 1.3626933017396865
  endloop
endfacet
facet normal -0.3826834316478837 4.4682024600046274e-29 0.9238795328083633
  outer loop
    vertex -15.400000118359836 -248.99999999999991 1.3626933017396865
    vertex -15.400000118359836 -245.99999999999991 1.3626933017396865
    vertex -16.412960129254966 -248.99999999999991 0.9431115280066017
  endloop
endfacet
facet normal -0.13052619145039457 4.468979031101149e-29 0.9914448614751377
  outer loop
    vertex -17.500000118796653 -245.99999999999991 0.7999999992645568
    vertex -17.500000118796653 -248.99999999999991 0.7999999992645568
    vertex -16.412960129254966 -245.99999999999991 0.9431115280066017
  endloop
endfacet
facet normal -0.13052619145039457 4.468979031101149e-29 0.9914448614751377
  outer loop
    vertex -16.412960129254966 -248.99999999999991 0.9431115280066017
    vertex -16.412960129254966 -245.99999999999991 0.9431115280066017
    vertex -17.500000118796653 -248.99999999999991 0.7999999992645568
  endloop
endfacet
facet normal 0.1305261929897091 4.165202066565165e-29 0.9914448612724831
  outer loop
    vertex -18.58704010811614 -245.99999999999991 0.9431115296943382
    vertex -18.58704010811614 -248.99999999999991 0.9431115296943382
    vertex -17.500000118796653 -245.99999999999991 0.7999999992645568
  endloop
endfacet
facet normal 0.1305261929897091 4.165202066565165e-29 0.9914448612724831
  outer loop
    vertex -17.500000118796653 -248.99999999999991 0.7999999992645568
    vertex -17.500000118796653 -245.99999999999991 0.7999999992645568
    vertex -18.58704010811614 -248.99999999999991 0.9431115296943382
  endloop
endfacet
facet normal 0.38268343308229585 3.5775734645146355e-29 0.9238795322142105
  outer loop
    vertex -19.600000118359834 -245.99999999999991 1.3626933050001413
    vertex -19.600000118359834 -248.99999999999991 1.3626933050001413
    vertex -18.58704010811614 -245.99999999999991 0.9431115296943382
  endloop
endfacet
facet normal 0.38268343308229585 3.5775734645146355e-29 0.9238795322142105
  outer loop
    vertex -18.58704010811614 -248.99999999999991 0.9431115296943382
    vertex -18.58704010811614 -245.99999999999991 0.9431115296943382
    vertex -19.600000118359834 -248.99999999999991 1.3626933050001413
  endloop
endfacet
facet normal 0.6087614296245989 2.746139143077126e-29 0.7933533398186552
  outer loop
    vertex -20.469848598825187 -245.99999999999991 2.0301515205865437
    vertex -20.469848598825187 -248.99999999999991 2.0301515205865437
    vertex -19.600000118359834 -245.99999999999991 1.3626933050001413
  endloop
endfacet
facet normal 0.6087614296245989 2.746139143077126e-29 0.7933533398186552
  outer loop
    vertex -19.600000118359834 -248.99999999999991 1.3626933050001413
    vertex -19.600000118359834 -245.99999999999991 1.3626933050001413
    vertex -20.469848598825187 -248.99999999999991 2.0301515205865437
  endloop
endfacet
facet normal 0.7933533407638163 1.727559977248408e-29 0.608761428392841
  outer loop
    vertex -20.469848598825187 -245.99999999999991 2.0301515205865437
    vertex -21.137306813061066 -245.99999999999991 2.9000000020881895
    vertex -20.469848598825187 -248.99999999999991 2.0301515205865437
  endloop
endfacet
facet normal 0.7933533407638163 1.727559977248408e-29 0.608761428392841
  outer loop
    vertex -21.137306813061066 -248.99999999999991 2.9000000020881895
    vertex -20.469848598825187 -248.99999999999991 2.0301515205865437
    vertex -21.137306813061066 -245.99999999999991 2.9000000020881895
  endloop
endfacet
facet normal 0.9238795328083633 5.9125045389807006e-30 0.3826834316478836
  outer loop
    vertex -21.137306813061066 -245.99999999999991 2.9000000020881895
    vertex -21.556888586794155 -245.99999999999991 3.9129600129833246
    vertex -21.137306813061066 -248.99999999999991 2.9000000020881895
  endloop
endfacet
facet normal 0.9238795328083633 5.9125045389807006e-30 0.3826834316478836
  outer loop
    vertex -21.556888586794155 -248.99999999999991 3.9129600129833246
    vertex -21.137306813061066 -248.99999999999991 2.9000000020881895
    vertex -21.556888586794155 -245.99999999999991 3.9129600129833246
  endloop
endfacet
facet normal -0.13052619145039385 4.5650483270263367e-17 0.9914448614751378
  outer loop
    vertex -18.794095337299563 -245.99999999999991 9.829629131714494
    vertex -18.794095337299563 -249.99999999999991 9.829629131714494
    vertex -17.500000111654703 -245.99999999999991 9.99999999926455
  endloop
endfacet
facet normal -0.13052619145039385 4.5650483270263367e-17 0.9914448614751378
  outer loop
    vertex -17.500000111654703 -249.99999999999991 9.99999999926455
    vertex -17.500000111654703 -245.99999999999991 9.99999999926455
    vertex -18.794095337299563 -249.99999999999991 9.829629131714494
  endloop
endfacet
facet normal -0.3826834316478834 4.468202460004628e-29 0.9238795328083635
  outer loop
    vertex -20.000000112174725 -245.99999999999991 9.330127020127488
    vertex -20.000000112174725 -249.99999999999991 9.330127020127488
    vertex -18.794095337299563 -245.99999999999991 9.829629131714494
  endloop
endfacet
facet normal -0.3826834316478834 4.468202460004628e-29 0.9238795328083635
  outer loop
    vertex -18.794095337299563 -249.99999999999991 9.829629131714494
    vertex -18.794095337299563 -245.99999999999991 9.829629131714494
    vertex -20.000000112174725 -249.99999999999991 9.330127020127488
  endloop
endfacet
facet normal -0.6087614283928416 4.162925275312488e-29 0.7933533407638158
  outer loop
    vertex -21.035534018724302 -245.99999999999991 8.535533907941916
    vertex -21.035534018724302 -249.99999999999991 8.535533907941916
    vertex -20.000000112174725 -245.99999999999991 9.330127020127488
  endloop
endfacet
facet normal -0.6087614283928416 4.162925275312488e-29 0.7933533407638158
  outer loop
    vertex -20.000000112174725 -249.99999999999991 9.330127020127488
    vertex -20.000000112174725 -245.99999999999991 9.330127020127488
    vertex -21.035534018724302 -249.99999999999991 8.535533907941916
  endloop
endfacet
facet normal -0.7933533398186551 3.573951612667093e-29 0.6087614296245991
  outer loop
    vertex -21.035534018724302 -245.99999999999991 8.535533907941916
    vertex -21.830127132517646 -245.99999999999991 7.500000002626028
    vertex -21.035534018724302 -249.99999999999991 8.535533907941916
  endloop
endfacet
facet normal -0.7933533398186551 3.573951612667093e-29 0.6087614296245991
  outer loop
    vertex -21.830127132517646 -249.99999999999991 7.500000002626028
    vertex -21.035534018724302 -249.99999999999991 8.535533907941916
    vertex -21.830127132517646 -245.99999999999991 7.500000002626028
  endloop
endfacet
facet normal -0.9238795322142105 2.7414190538527347e-29 0.3826834330822957
  outer loop
    vertex -21.830127132517646 -245.99999999999991 7.500000002626028
    vertex -22.000000113913813 -245.99999999999991 7.089890347959105
    vertex -21.830127132517646 -249.99999999999991 7.500000002626028
  endloop
endfacet
facet normal -0.9238795322142105 2.7414190538527347e-29 0.3826834330822957
  outer loop
    vertex -22.000000113913813 -249.99999999999991 7.089890347959105
    vertex -21.830127132517646 -249.99999999999991 7.500000002626028
    vertex -22.000000113913813 -245.99999999999991 7.089890347959105
  endloop
endfacet
facet normal 1.1636628540971214e-29 1.0 -4.354342554825245e-29
  outer loop
    vertex -17.500000119417685 -245.99999999999991 -7.3544440121199e-10
    vertex -18.794095344798034 -245.99999999999991 0.17037086882381913
    vertex -13.000000118641402 -245.99999999999991 0.9999999957712198
  endloop
endfacet
facet normal 1.1636628540971214e-29 1.0 -4.354342554825245e-29
  outer loop
    vertex -20.00000011889767 -245.99999999999991 0.6698729822831099
    vertex -13.000000118641402 -245.99999999999991 0.9999999957712198
    vertex -18.794095344798034 -245.99999999999991 0.17037086882381913
  endloop
endfacet
facet normal 1.1636628540971214e-29 1.0 -4.354342554825245e-29
  outer loop
    vertex -17.500000118796653 -245.99999999999991 0.7999999992645568
    vertex -13.000000118641402 -245.99999999999991 0.9999999957712198
    vertex -20.00000011889767 -245.99999999999991 0.6698729822831099
  endloop
endfacet
facet normal 1.1636628540971214e-29 1.0 -4.354342554825245e-29
  outer loop
    vertex -16.412960129254966 -245.99999999999991 0.9431115280066017
    vertex -13.000000118641402 -245.99999999999991 0.9999999957712198
    vertex -17.500000118796653 -245.99999999999991 0.7999999992645568
  endloop
endfacet
facet normal 1.1636628540971214e-29 1.0 -4.354342554825245e-29
  outer loop
    vertex -15.400000118359836 -245.99999999999991 1.3626933017396865
    vertex -13.000000118641402 -245.99999999999991 0.9999999957712198
    vertex -16.412960129254966 -245.99999999999991 0.9431115280066017
  endloop
endfacet
facet normal 1.1636628540971214e-29 1.0 -4.354342554825245e-29
  outer loop
    vertex -8.0000001186414 -245.99999999999991 0.9999999918897478
    vertex -13.000000118641402 -245.99999999999991 0.9999999957712198
    vertex -15.400000118359836 -245.99999999999991 1.3626933017396865
  endloop
endfacet
facet normal 1.1636628540971214e-29 1.0 -4.354342554825245e-29
  outer loop
    vertex -14.530151636858186 -245.99999999999991 2.0301515159755654
    vertex -8.0000001186414 -245.99999999999991 0.9999999918897478
    vertex -15.400000118359836 -245.99999999999991 1.3626933017396865
  endloop
endfacet
facet normal 1.1636628540971214e-29 1.0 -4.354342554825245e-29
  outer loop
    vertex -8.000000112431003 -245.99999999999991 8.999999991889737
    vertex -8.0000001186414 -245.99999999999991 0.9999999918897478
    vertex -14.530151636858186 -245.99999999999991 2.0301515159755654
  endloop
endfacet
facet normal 1.1636628540971214e-29 1.0 -4.354342554825245e-29
  outer loop
    vertex -13.86269342127178 -245.99999999999991 2.8999999964409167
    vertex -8.000000112431003 -245.99999999999991 8.999999991889737
    vertex -14.530151636858186 -245.99999999999991 2.0301515159755654
  endloop
endfacet
facet normal 1.1636628540971214e-29 1.0 -4.354342554825245e-29
  outer loop
    vertex -13.443111645965978 -245.99999999999991 3.9129600066846084
    vertex -8.000000112431003 -245.99999999999991 8.999999991889737
    vertex -13.86269342127178 -245.99999999999991 2.8999999964409167
  endloop
endfacet
facet normal 1.1636628540971214e-29 1.0 -4.354342554825245e-29
  outer loop
    vertex -13.300000115536196 -245.99999999999991 4.999999996004103
    vertex -8.000000112431003 -245.99999999999991 8.999999991889737
    vertex -13.443111645965978 -245.99999999999991 3.9129600066846084
  endloop
endfacet
facet normal 1.1636628540971214e-29 1.0 -4.354342554825245e-29
  outer loop
    vertex -13.443111644278241 -245.99999999999991 6.087039985545782
    vertex -8.000000112431003 -245.99999999999991 8.999999991889737
    vertex -13.300000115536196 -245.99999999999991 4.999999996004103
  endloop
endfacet
facet normal 1.1636628540971214e-29 1.0 -4.354342554825245e-29
  outer loop
    vertex -13.862693418011323 -245.99999999999991 7.09999999644091
    vertex -8.000000112431003 -245.99999999999991 8.999999991889737
    vertex -13.443111644278241 -245.99999999999991 6.087039985545782
  endloop
endfacet
facet normal 1.1636628540971214e-29 1.0 -4.354342554825245e-29
  outer loop
    vertex -14.530151632247202 -245.99999999999991 7.969848477942564
    vertex -8.000000112431003 -245.99999999999991 8.999999991889737
    vertex -13.862693418011323 -245.99999999999991 7.09999999644091
  endloop
endfacet
facet normal 1.1636628540971214e-29 1.0 -4.354342554825245e-29
  outer loop
    vertex -15.40000011271256 -245.99999999999991 8.637306693528961
    vertex -8.000000112431003 -245.99999999999991 8.999999991889737
    vertex -14.530151632247202 -245.99999999999991 7.969848477942564
  endloop
endfacet
facet normal 1.1636628540971214e-29 1.0 -4.354342554825245e-29
  outer loop
    vertex -13.000000112431 -245.99999999999991 8.99999999577121
    vertex -8.000000112431003 -245.99999999999991 8.999999991889737
    vertex -15.40000011271256 -245.99999999999991 8.637306693528961
  endloop
endfacet
facet normal 1.1636628540971214e-29 1.0 -4.354342554825245e-29
  outer loop
    vertex -15.40000011271256 -245.99999999999991 8.637306693528961
    vertex -16.412960122956253 -245.99999999999991 9.056888468834766
    vertex -13.000000112431 -245.99999999999991 8.99999999577121
  endloop
endfacet
facet normal 1.1636628540971214e-29 1.0 -4.354342554825245e-29
  outer loop
    vertex -17.500000111654703 -245.99999999999991 9.99999999926455
    vertex -13.000000112431 -245.99999999999991 8.99999999577121
    vertex -16.412960122956253 -245.99999999999991 9.056888468834766
  endloop
endfacet
facet normal 1.1636628540971214e-29 1.0 -4.354342554825245e-29
  outer loop
    vertex -17.50000011227574 -245.99999999999991 9.199999999264547
    vertex -17.500000111654703 -245.99999999999991 9.99999999926455
    vertex -16.412960122956253 -245.99999999999991 9.056888468834766
  endloop
endfacet
facet normal 1.1636628540971214e-29 1.0 -4.354342554825245e-29
  outer loop
    vertex -20.000000112174725 -245.99999999999991 9.330127020127488
    vertex -17.500000111654703 -245.99999999999991 9.99999999926455
    vertex -17.50000011227574 -245.99999999999991 9.199999999264547
  endloop
endfacet
facet normal 1.1636628540971214e-29 1.0 -4.354342554825245e-29
  outer loop
    vertex -18.794095337299563 -245.99999999999991 9.829629131714494
    vertex -17.500000111654703 -245.99999999999991 9.99999999926455
    vertex -20.000000112174725 -245.99999999999991 9.330127020127488
  endloop
endfacet
facet normal 1.1636628540971214e-29 1.0 -4.354342554825245e-29
  outer loop
    vertex -21.035534024213565 -245.99999999999991 1.4644660960764484
    vertex -18.58704010811614 -245.99999999999991 0.9431115296943382
    vertex -20.00000011889767 -245.99999999999991 0.6698729822831099
  endloop
endfacet
facet normal 1.1636628540971214e-29 1.0 -4.354342554825245e-29
  outer loop
    vertex -17.500000118796653 -245.99999999999991 0.7999999992645568
    vertex -20.00000011889767 -245.99999999999991 0.6698729822831099
    vertex -18.58704010811614 -245.99999999999991 0.9431115296943382
  endloop
endfacet
facet normal 1.1636628540971214e-29 1.0 -4.354342554825245e-29
  outer loop
    vertex -19.600000118359834 -245.99999999999991 1.3626933050001413
    vertex -18.58704010811614 -245.99999999999991 0.9431115296943382
    vertex -21.035534024213565 -245.99999999999991 1.4644660960764484
  endloop
endfacet
facet normal 1.1636628540971214e-29 1.0 -4.354342554825245e-29
  outer loop
    vertex -20.469848598825187 -245.99999999999991 2.0301515205865437
    vertex -19.600000118359834 -245.99999999999991 1.3626933050001413
    vertex -21.035534024213565 -245.99999999999991 1.4644660960764484
  endloop
endfacet
facet normal 1.1636628540971214e-29 1.0 -4.354342554825245e-29
  outer loop
    vertex -21.830127136399135 -245.99999999999991 2.5000000026260274
    vertex -20.469848598825187 -245.99999999999991 2.0301515205865437
    vertex -21.035534024213565 -245.99999999999991 1.4644660960764484
  endloop
endfacet
facet normal 1.1636628540971214e-29 1.0 -4.354342554825245e-29
  outer loop
    vertex -21.137306813061066 -245.99999999999991 2.9000000020881895
    vertex -20.469848598825187 -245.99999999999991 2.0301515205865437
    vertex -21.830127136399135 -245.99999999999991 2.5000000026260274
  endloop
endfacet
facet normal 1.1636628540971214e-29 1.0 -4.354342554825245e-29
  outer loop
    vertex -22.00000011715857 -245.99999999999991 2.910109657556677
    vertex -21.137306813061066 -245.99999999999991 2.9000000020881895
    vertex -21.830127136399135 -245.99999999999991 2.5000000026260274
  endloop
endfacet
facet normal 1.1636628540971214e-29 1.0 -4.354342554825245e-29
  outer loop
    vertex -21.556888586794155 -245.99999999999991 3.9129600129833246
    vertex -21.137306813061066 -245.99999999999991 2.9000000020881895
    vertex -22.00000011715857 -245.99999999999991 2.910109657556677
  endloop
endfacet
facet normal 1.1636628540971214e-29 1.0 -4.354342554825245e-29
  outer loop
    vertex -22.000000113913813 -245.99999999999991 7.089890347959105
    vertex -21.556888586794155 -245.99999999999991 3.9129600129833246
    vertex -22.00000011715857 -245.99999999999991 2.910109657556677
  endloop
endfacet
facet normal 1.1636628540971214e-29 1.0 -4.354342554825245e-29
  outer loop
    vertex -21.70000011553619 -245.99999999999991 5.000000002525004
    vertex -21.556888586794155 -245.99999999999991 3.9129600129833246
    vertex -22.000000113913813 -245.99999999999991 7.089890347959105
  endloop
endfacet
facet normal 1.1636628540971214e-29 1.0 -4.354342554825245e-29
  outer loop
    vertex -21.556888585106417 -245.99999999999991 6.0870399918445015
    vertex -21.70000011553619 -245.99999999999991 5.000000002525004
    vertex -22.000000113913813 -245.99999999999991 7.089890347959105
  endloop
endfacet
facet normal 1.1636628540971214e-29 1.0 -4.354342554825245e-29
  outer loop
    vertex -21.13730680980061 -245.99999999999991 7.1000000020881915
    vertex -21.556888585106417 -245.99999999999991 6.0870399918445015
    vertex -22.000000113913813 -245.99999999999991 7.089890347959105
  endloop
endfacet
facet normal 1.1636628540971214e-29 1.0 -4.354342554825245e-29
  outer loop
    vertex -21.830127132517646 -245.99999999999991 7.500000002626028
    vertex -21.13730680980061 -245.99999999999991 7.1000000020881915
    vertex -22.000000113913813 -245.99999999999991 7.089890347959105
  endloop
endfacet
facet normal 1.1636628540971214e-29 1.0 -4.354342554825245e-29
  outer loop
    vertex -20.4698485942142 -245.99999999999991 7.969848482553537
    vertex -21.13730680980061 -245.99999999999991 7.1000000020881915
    vertex -21.830127132517646 -245.99999999999991 7.500000002626028
  endloop
endfacet
facet normal 1.1636628540971214e-29 1.0 -4.354342554825245e-29
  outer loop
    vertex -21.035534018724302 -245.99999999999991 8.535533907941916
    vertex -20.4698485942142 -245.99999999999991 7.969848482553537
    vertex -21.830127132517646 -245.99999999999991 7.500000002626028
  endloop
endfacet
facet normal 1.1636628540971214e-29 1.0 -4.354342554825245e-29
  outer loop
    vertex -19.600000112712557 -245.99999999999991 8.637306696789423
    vertex -20.4698485942142 -245.99999999999991 7.969848482553537
    vertex -21.035534018724302 -245.99999999999991 8.535533907941916
  endloop
endfacet
facet normal 1.1636628540971214e-29 1.0 -4.354342554825245e-29
  outer loop
    vertex -20.000000112174725 -245.99999999999991 9.330127020127488
    vertex -19.600000112712557 -245.99999999999991 8.637306696789423
    vertex -21.035534018724302 -245.99999999999991 8.535533907941916
  endloop
endfacet
facet normal 1.1636628540971214e-29 1.0 -4.354342554825245e-29
  outer loop
    vertex -18.587040101817426 -245.99999999999991 9.056888470522509
    vertex -19.600000112712557 -245.99999999999991 8.637306696789423
    vertex -20.000000112174725 -245.99999999999991 9.330127020127488
  endloop
endfacet
facet normal 1.1636628540971214e-29 1.0 -4.354342554825245e-29
  outer loop
    vertex -17.50000011227574 -245.99999999999991 9.199999999264547
    vertex -18.587040101817426 -245.99999999999991 9.056888470522509
    vertex -20.000000112174725 -245.99999999999991 9.330127020127488
  endloop
endfacet
facet normal -0.9238795328083631 -5.9125045389807216e-30 -0.382683431647884
  outer loop
    vertex -22.00000011715857 -245.99999999999991 2.910109657556677
    vertex -21.830127136399135 -245.99999999999991 2.5000000026260274
    vertex -22.00000011715857 -249.99999999999991 2.910109657556677
  endloop
endfacet
facet normal -0.9238795328083631 -5.9125045389807216e-30 -0.382683431647884
  outer loop
    vertex -21.830127136399135 -249.99999999999991 2.5000000026260274
    vertex -22.00000011715857 -249.99999999999991 2.910109657556677
    vertex -21.830127136399135 -245.99999999999991 2.5000000026260274
  endloop
endfacet
facet normal -0.7933533407638146 -1.7275599772484206e-29 -0.6087614283928432
  outer loop
    vertex -21.830127136399135 -245.99999999999991 2.5000000026260274
    vertex -21.035534024213565 -245.99999999999991 1.4644660960764484
    vertex -21.830127136399135 -249.99999999999991 2.5000000026260274
  endloop
endfacet
facet normal -0.7933533407638146 -1.7275599772484206e-29 -0.6087614283928432
  outer loop
    vertex -21.035534024213565 -249.99999999999991 1.4644660960764484
    vertex -21.830127136399135 -249.99999999999991 2.5000000026260274
    vertex -21.035534024213565 -245.99999999999991 1.4644660960764484
  endloop
endfacet
facet normal -0.608761429624601 -2.746139143077116e-29 -0.7933533398186536
  outer loop
    vertex -21.035534024213565 -249.99999999999991 1.4644660960764484
    vertex -21.035534024213565 -245.99999999999991 1.4644660960764484
    vertex -20.00000011889767 -249.99999999999991 0.6698729822831099
  endloop
endfacet
facet normal -0.608761429624601 -2.746139143077116e-29 -0.7933533398186536
  outer loop
    vertex -20.00000011889767 -245.99999999999991 0.6698729822831099
    vertex -20.00000011889767 -249.99999999999991 0.6698729822831099
    vertex -21.035534024213565 -245.99999999999991 1.4644660960764484
  endloop
endfacet
facet normal -0.3826834330822967 -3.577573464514634e-29 -0.92387953221421
  outer loop
    vertex -20.00000011889767 -249.99999999999991 0.6698729822831099
    vertex -20.00000011889767 -245.99999999999991 0.6698729822831099
    vertex -18.794095344798034 -249.99999999999991 0.17037086882381913
  endloop
endfacet
facet normal -0.3826834330822967 -3.577573464514634e-29 -0.92387953221421
  outer loop
    vertex -18.794095344798034 -245.99999999999991 0.17037086882381913
    vertex -18.794095344798034 -249.99999999999991 0.17037086882381913
    vertex -20.00000011889767 -245.99999999999991 0.6698729822831099
  endloop
endfacet
facet normal -0.13052619298970897 8.923649753326994e-18 -0.9914448612724832
  outer loop
    vertex -18.794095344798034 -249.99999999999991 0.17037086882381913
    vertex -18.794095344798034 -245.99999999999991 0.17037086882381913
    vertex -17.500000119417688 -249.99999999999991 -7.35444074390073e-10
  endloop
endfacet
facet normal -0.13052619298970897 8.923649753326994e-18 -0.9914448612724832
  outer loop
    vertex -17.500000119417685 -245.99999999999991 -7.3544440121199e-10
    vertex -17.500000119417688 -249.99999999999991 -7.35444074390073e-10
    vertex -18.794095344798034 -245.99999999999991 0.17037086882381913
  endloop
endfacet
facet normal -0.9914448613737258 0.1305261922206941 7.696522161884065e-10
  outer loop
    vertex -18.829629245428876 -253.70590477448755 7.0000000002967635
    vertex -18.82962924853407 -253.70590477448755 3.000000000296766
    vertex -18.839246390522042 -253.7789542438813 7.0000000003042295
  endloop
endfacet
facet normal -0.9914448613737258 0.1305261922206941 7.696522161884065e-10
  outer loop
    vertex -18.83924639362724 -253.7789542438813 3.000000000304233
    vertex -18.839246390522042 -253.7789542438813 7.0000000003042295
    vertex -18.82962924853407 -253.70590477448755 3.000000000296766
  endloop
endfacet
facet normal -0.9238795325112945 0.38268343236507124 7.172010494594274e-10
  outer loop
    vertex -18.330127132905723 -252.50000000000006 6.999999999909001
    vertex -18.330127136010912 -252.50000000000006 2.9999999999090043
    vertex -18.829629245428876 -253.70590477448755 7.0000000002967635
  endloop
endfacet
facet normal -0.9238795325112945 0.38268343236507124 7.172010494594274e-10
  outer loop
    vertex -18.82962924853407 -253.70590477448755 3.000000000296766
    vertex -18.829629245428876 -253.70590477448755 7.0000000002967635
    vertex -18.330127136010912 -252.50000000000006 2.9999999999090043
  endloop
endfacet
facet normal -0.991444861373814 0.13052619222002532 7.696522300662629e-10
  outer loop
    vertex -18.839246390522042 -253.7789542438813 7.0000000003042295
    vertex -18.83924639362724 -253.7789542438813 3.000000000304233
    vertex -19.000000113983535 -255.00000000000003 7.000000000429024
  endloop
endfacet
facet normal -0.991444861373814 0.13052619222002532 7.696522300662629e-10
  outer loop
    vertex -19.000000117088724 -255.00000000000003 3.0000000004290284
    vertex -19.000000113983535 -255.00000000000003 7.000000000429024
    vertex -18.83924639362724 -253.7789542438813 3.000000000304233
  endloop
endfacet
facet normal -0.9914448613738103 -0.13052619222005366 7.696515500546574e-10
  outer loop
    vertex -19.000000113983535 -255.00000000000003 7.000000000429024
    vertex -19.000000117088724 -255.00000000000003 3.0000000004290284
    vertex -18.829629245428865 -256.2940952255127 7.0000000002967635
  endloop
endfacet
facet normal -0.9914448613738103 -0.13052619222005366 7.696515500546574e-10
  outer loop
    vertex -18.829629248534058 -256.2940952255127 3.0000000002967675
    vertex -18.829629245428865 -256.2940952255127 7.0000000002967635
    vertex -19.000000117088724 -255.00000000000003 3.0000000004290284
  endloop
endfacet
facet normal -0.6087614290086383 0.7933533402912984 4.725771103354788e-10
  outer loop
    vertex -16.500000117088767 -250.6698729810779 2.9999999984882653
    vertex -16.974976024623718 -251.0343348135692 2.9999999988569943
    vertex -16.500000113983578 -250.6698729810779 6.9999999984882635
  endloop
endfacet
facet normal -0.6087614290086383 0.7933533402912984 4.725771103354788e-10
  outer loop
    vertex -16.97497602151853 -251.0343348135692 6.999999998856994
    vertex -16.500000113983578 -250.6698729810779 6.9999999984882635
    vertex -16.974976024623718 -251.0343348135692 2.9999999988569943
  endloop
endfacet
facet normal -0.3826834323652408 0.9238795325112241 2.9707439808586844e-10
  outer loop
    vertex -15.294095342601468 -250.17037086855456 2.9999999975521154
    vertex -16.500000117088767 -250.6698729810779 2.9999999984882653
    vertex -15.294095339496282 -250.17037086855456 6.999999997552114
  endloop
endfacet
facet normal -0.3826834323652408 0.9238795325112241 2.9707439808586844e-10
  outer loop
    vertex -16.500000113983578 -250.6698729810779 6.9999999984882635
    vertex -15.294095339496282 -250.17037086855456 6.999999997552114
    vertex -16.500000117088767 -250.6698729810779 2.9999999984882653
  endloop
endfacet
facet normal -0.38268343236506275 -0.9238795325112981 2.970746687025926e-10
  outer loop
    vertex -15.294095342601434 -259.8296291314453 2.9999999975521154
    vertex -15.294095339496243 -259.8296291314453 6.999999997552113
    vertex -16.50000011708874 -259.33012701892227 2.9999999984882635
  endloop
endfacet
facet normal -0.38268343236506275 -0.9238795325112981 2.970746687025926e-10
  outer loop
    vertex -16.50000011398355 -259.33012701892227 6.9999999984882635
    vertex -16.50000011708874 -259.33012701892227 2.9999999984882635
    vertex -15.294095339496243 -259.8296291314453 6.999999997552113
  endloop
endfacet
facet normal -0.13052619222004944 -0.9914448613738107 1.0132654431676504e-10
  outer loop
    vertex -14.000000117088764 -260.0 2.999999996547511
    vertex -14.000000113983573 -260.0 6.999999996547507
    vertex -15.294095342601434 -259.8296291314453 2.9999999975521154
  endloop
endfacet
facet normal -0.13052619222004944 -0.9914448613738107 1.0132654431676504e-10
  outer loop
    vertex -15.294095339496243 -259.8296291314453 6.999999997552113
    vertex -15.294095342601434 -259.8296291314453 2.9999999975521154
    vertex -14.000000113983573 -260.0 6.999999996547507
  endloop
endfacet
facet normal -0.7933533402913053 0.6087614290086293 6.158745016732621e-10
  outer loop
    vertex -17.53553401991639 -251.46446609406723 6.999999999292153
    vertex -17.535534023021583 -251.46446609406723 2.9999999992921556
    vertex -18.330127132905723 -252.50000000000006 6.999999999909001
  endloop
endfacet
facet normal -0.7933533402913053 0.6087614290086293 6.158745016732621e-10
  outer loop
    vertex -18.330127136010912 -252.50000000000006 2.9999999999090043
    vertex -18.330127132905723 -252.50000000000006 6.999999999909001
    vertex -17.535534023021583 -251.46446609406723 2.9999999992921556
  endloop
endfacet
facet normal -0.608761429008626 0.793353340291308 4.725771242132571e-10
  outer loop
    vertex -16.974976024623718 -251.0343348135692 2.9999999988569943
    vertex -17.535534023021583 -251.46446609406723 2.9999999992921556
    vertex -16.97497602151853 -251.0343348135692 6.999999998856994
  endloop
endfacet
facet normal -0.608761429008626 0.793353340291308 4.725771242132571e-10
  outer loop
    vertex -17.53553401991639 -251.46446609406723 6.999999999292153
    vertex -16.97497602151853 -251.0343348135692 6.999999998856994
    vertex -17.535534023021583 -251.46446609406723 2.9999999992921556
  endloop
endfacet
facet normal -0.9238795325112827 -0.38268343236509944 7.172010355816304e-10
  outer loop
    vertex -18.829629245428865 -256.2940952255127 7.0000000002967635
    vertex -18.829629248534058 -256.2940952255127 3.0000000002967675
    vertex -18.330127132905705 -257.5000000000001 6.999999999909001
  endloop
endfacet
facet normal -0.9238795325112827 -0.38268343236509944 7.172010355816304e-10
  outer loop
    vertex -18.330127136010894 -257.5000000000001 2.9999999999090043
    vertex -18.330127132905705 -257.5000000000001 6.999999999909001
    vertex -18.829629248534058 -256.2940952255127 3.0000000002967675
  endloop
endfacet
facet normal -0.793353340291252 -0.6087614290086987 6.158744600398574e-10
  outer loop
    vertex -18.330127132905705 -257.5000000000001 6.999999999909001
    vertex -18.330127136010894 -257.5000000000001 2.9999999999090043
    vertex -17.53553401991637 -258.5355339059327 6.99999999929215
  endloop
endfacet
facet normal -0.793353340291252 -0.6087614290086987 6.158744600398574e-10
  outer loop
    vertex -17.53553402302156 -258.5355339059327 2.9999999992921556
    vertex -17.53553401991637 -258.5355339059327 6.99999999929215
    vertex -18.330127136010894 -257.5000000000001 2.9999999999090043
  endloop
endfacet
facet normal -0.13052619222004944 0.9914448613738107 1.0132654431676504e-10
  outer loop
    vertex -14.000000117088797 -249.99999999999991 2.999999996547511
    vertex -15.294095342601468 -250.17037086855456 2.9999999975521154
    vertex -14.000000113983607 -249.99999999999991 6.9999999965475075
  endloop
endfacet
facet normal -0.13052619222004944 0.9914448613738107 1.0132654431676504e-10
  outer loop
    vertex -15.294095339496282 -250.17037086855456 6.999999997552114
    vertex -14.000000113983607 -249.99999999999991 6.9999999965475075
    vertex -15.294095342601468 -250.17037086855456 2.9999999975521154
  endloop
endfacet
facet normal -0.6087614290087161 -0.7933533402912387 4.725775821803246e-10
  outer loop
    vertex -16.50000011708874 -259.33012701892227 2.9999999984882635
    vertex -16.50000011398355 -259.33012701892227 6.9999999984882635
    vertex -17.53553402302156 -258.5355339059327 2.9999999992921556
  endloop
endfacet
facet normal -0.6087614290087161 -0.7933533402912387 4.725775821803246e-10
  outer loop
    vertex -17.53553401991637 -258.5355339059327 6.99999999929215
    vertex -17.53553402302156 -258.5355339059327 2.9999999992921556
    vertex -16.50000011398355 -259.33012701892227 6.9999999984882635
  endloop
endfacet
facet normal 1.0 3.524958103184866e-15 -7.762899961738512e-10
  outer loop
    vertex -8.0000001186414 -245.99999999999991 0.9999999918897478
    vertex -8.000000112431003 -245.99999999999991 8.999999991889737
    vertex -8.000000118641163 -289.9999999999999 0.9999999918897478
  endloop
endfacet
facet normal 1.0 3.524958103184866e-15 -7.762899961738512e-10
  outer loop
    vertex -8.000000112430936 -289.9999999999999 8.999999991889737
    vertex -8.000000118641163 -289.9999999999999 0.9999999918897478
    vertex -8.000000112431003 -245.99999999999991 8.999999991889737
  endloop
endfacet
facet normal 0.216930457060845 6.069574281419352e-16 -0.9761870603523555
  outer loop
    vertex -17.500000119417688 -249.99999999999991 -7.35444074390073e-10
    vertex -17.500000119417685 -245.99999999999991 -7.3544440121199e-10
    vertex -13.000000118641402 -249.99999999999991 0.9999999957712138
  endloop
endfacet
facet normal 0.216930457060845 6.069574281419352e-16 -0.9761870603523555
  outer loop
    vertex -13.000000118641402 -245.99999999999991 0.9999999957712198
    vertex -13.000000118641402 -249.99999999999991 0.9999999957712138
    vertex -17.500000119417685 -245.99999999999991 -7.3544440121199e-10
  endloop
endfacet
facet normal -7.762935852425473e-10 8.622472358740323e-17 -1.0
  outer loop
    vertex -13.000000118641402 -249.99999999999991 0.9999999957712138
    vertex -13.000000118641402 -245.99999999999991 0.9999999957712198
    vertex -13.000000118641163 -289.9999999999999 0.999999995771214
  endloop
endfacet
facet normal -7.762935852425473e-10 8.622472358740323e-17 -1.0
  outer loop
    vertex -8.0000001186414 -245.99999999999991 0.9999999918897478
    vertex -13.000000118641163 -289.9999999999999 0.999999995771214
    vertex -13.000000118641402 -245.99999999999991 0.9999999957712198
  endloop
endfacet
facet normal -7.762935852425473e-10 8.622472358740323e-17 -1.0
  outer loop
    vertex -8.000000118641163 -289.9999999999999 0.9999999918897478
    vertex -13.000000118641163 -289.9999999999999 0.999999995771214
    vertex -8.0000001186414 -245.99999999999991 0.9999999918897478
  endloop
endfacet
facet normal 7.762940793444351e-10 -8.508519559985409e-17 1.0
  outer loop
    vertex -13.000000112431 -245.99999999999991 8.99999999577121
    vertex -13.000000112431 -249.99999999999991 8.999999995771205
    vertex -8.000000112431003 -245.99999999999991 8.999999991889737
  endloop
endfacet
facet normal 7.762940793444351e-10 -8.508519559985409e-17 1.0
  outer loop
    vertex -13.000000112430932 -289.9999999999999 8.999999995771205
    vertex -8.000000112431003 -245.99999999999991 8.999999991889737
    vertex -13.000000112431 -249.99999999999991 8.999999995771205
  endloop
endfacet
facet normal 7.762940793444351e-10 -8.508519559985409e-17 1.0
  outer loop
    vertex -8.000000112430936 -289.9999999999999 8.999999991889737
    vertex -8.000000112431003 -245.99999999999991 8.999999991889737
    vertex -13.000000112430932 -289.9999999999999 8.999999995771205
  endloop
endfacet
endsolid Robochera
