solid Robochera
facet normal 1.0 -3.4290792427782417e-15 5.256417523469278e-15
  outer loop
    vertex -8.000000000000062 -825.0000000000001 0.9999999999999994
    vertex -8.000000000000288 -865.0 8.999999999999998
    vertex -8.0000000000003 -865.0 0.9999999999999994
  endloop
endfacet
facet normal 1.0 -3.4290792427782417e-15 5.256417523469278e-15
  outer loop
    vertex -8.000000000000288 -865.0 8.999999999999998
    vertex -8.000000000000062 -825.0000000000001 0.9999999999999994
    vertex -8.00000000000022 -825.0000000000001 8.999999999999998
  endloop
endfacet
facet normal 5.2564175234692785e-15 -3.4645442767598724e-29 -1.0
  outer loop
    vertex -13.00000000000006 -825.0000000000001 0.9999999999999731
    vertex -8.0000000000003 -865.0 0.9999999999999994
    vertex -13.000000000000298 -865.0 0.9999999999999731
  endloop
endfacet
facet normal 5.2564175234692785e-15 -3.4645442767598724e-29 -1.0
  outer loop
    vertex -8.0000000000003 -865.0 0.9999999999999994
    vertex -13.00000000000006 -825.0000000000001 0.9999999999999731
    vertex -8.000000000000062 -825.0000000000001 0.9999999999999994
  endloop
endfacet
facet normal 3.4290792427782425e-15 1.0 5.801933118381221e-29
  outer loop
    vertex -13.000000000000218 -825.0000000000001 8.999999999999972
    vertex -8.000000000000062 -825.0000000000001 0.9999999999999994
    vertex -13.00000000000006 -825.0000000000001 0.9999999999999731
  endloop
endfacet
facet normal 3.4290792427782425e-15 1.0 5.801933118381221e-29
  outer loop
    vertex -8.000000000000062 -825.0000000000001 0.9999999999999994
    vertex -13.000000000000218 -825.0000000000001 8.999999999999972
    vertex -8.00000000000022 -825.0000000000001 8.999999999999998
  endloop
endfacet
facet normal -1.0 3.4290792427782417e-15 -5.256417523469278e-15
  outer loop
    vertex -13.000000000000218 -825.0000000000001 8.999999999999972
    vertex -13.000000000000298 -865.0 0.9999999999999731
    vertex -13.000000000000286 -865.0 8.999999999999972
  endloop
endfacet
facet normal -1.0 3.4290792427782417e-15 -5.256417523469278e-15
  outer loop
    vertex -13.000000000000298 -865.0 0.9999999999999731
    vertex -13.000000000000218 -825.0000000000001 8.999999999999972
    vertex -13.00000000000006 -825.0000000000001 0.9999999999999731
  endloop
endfacet
facet normal -3.4290792427782425e-15 -1.0 0.0
  outer loop
    vertex -8.0000000000003 -865.0 0.9999999999999994
    vertex -13.000000000000286 -865.0 8.999999999999972
    vertex -13.000000000000298 -865.0 0.9999999999999731
  endloop
endfacet
facet normal -3.4290792427782425e-15 -1.0 0.0
  outer loop
    vertex -13.000000000000286 -865.0 8.999999999999972
    vertex -8.0000000000003 -865.0 0.9999999999999994
    vertex -8.000000000000288 -865.0 8.999999999999998
  endloop
endfacet
facet normal -5.256417523469278e-15 0.0 1.0
  outer loop
    vertex -8.000000000000288 -865.0 8.999999999999998
    vertex -13.000000000000218 -825.0000000000001 8.999999999999972
    vertex -13.000000000000286 -865.0 8.999999999999972
  endloop
endfacet
facet normal -5.256417523469278e-15 0.0 1.0
  outer loop
    vertex -13.000000000000218 -825.0000000000001 8.999999999999972
    vertex -8.000000000000288 -865.0 8.999999999999998
    vertex -8.00000000000022 -825.0000000000001 8.999999999999998
  endloop
endfacet
endsolid Robochera
