solid Robochera
facet normal 2.8650001672469574e-14 -1.0 -5.6399329678266326e-15
  outer loop
    vertex -20.000000000000142 -245.00000000000037 6.999999999999888
    vertex -17.00000000000015 -245.00000000000037 6.999999999999923
    vertex -20.00000000000018 -245.00000000000037 8.999999999999888
  endloop
endfacet
facet normal 2.8650001672469574e-14 -1.0 -5.6399329678266326e-15
  outer loop
    vertex -13.000000000000117 -245.00000000000006 0.999999979022162
    vertex -8.000000000000028 -245.00000000000006 0.9999999790221878
    vertex -20.000000000000036 -245.00000000000037 0.9999999999998861
  endloop
endfacet
facet normal 2.8650001672469574e-14 -1.0 -5.6399329678266326e-15
  outer loop
    vertex -8.000000000000188 -245.00000000000006 9.000000000000004
    vertex -20.000000000000036 -245.00000000000037 0.9999999999998861
    vertex -8.000000000000028 -245.00000000000006 0.9999999790221878
  endloop
endfacet
facet normal 2.8650001672469574e-14 -1.0 -5.6399329678266326e-15
  outer loop
    vertex -17.00000000000008 -245.0000000000003 2.999999999999943
    vertex -20.000000000000036 -245.00000000000037 0.9999999999998861
    vertex -8.000000000000188 -245.00000000000006 9.000000000000004
  endloop
endfacet
facet normal 2.8650001672469574e-14 -1.0 -5.6399329678266326e-15
  outer loop
    vertex -20.00000000000007 -245.00000000000037 2.9999999999998863
    vertex -20.000000000000036 -245.00000000000037 0.9999999999998861
    vertex -17.00000000000008 -245.0000000000003 2.999999999999943
  endloop
endfacet
facet normal 2.8650001672469574e-14 -1.0 -5.6399329678266326e-15
  outer loop
    vertex -17.00000000000015 -245.00000000000037 6.999999999999923
    vertex -17.00000000000008 -245.0000000000003 2.999999999999943
    vertex -8.000000000000188 -245.00000000000006 9.000000000000004
  endloop
endfacet
facet normal 2.8650001672469574e-14 -1.0 -5.6399329678266326e-15
  outer loop
    vertex -20.00000000000018 -245.00000000000037 8.999999999999888
    vertex -17.00000000000015 -245.00000000000037 6.999999999999923
    vertex -8.000000000000188 -245.00000000000006 9.000000000000004
  endloop
endfacet
facet normal 2.8650001672469574e-14 -1.0 -5.6399329678266326e-15
  outer loop
    vertex -13.00000000000019 -245.00000000000017 8.999999999999966
    vertex -20.00000000000018 -245.00000000000037 8.999999999999888
    vertex -8.000000000000188 -245.00000000000006 9.000000000000004
  endloop
endfacet
facet normal -3.4290792427782425e-15 1.0 0.0
  outer loop
    vertex -13.000000000000266 -205.00000000000009 0.9999999790221615
    vertex -13.000000000000258 -205.00000000000009 8.999999999999979
    vertex -8.000000000000266 -205.00000000000009 0.9999999790221878
  endloop
endfacet
facet normal -3.4290792427782425e-15 1.0 0.0
  outer loop
    vertex -8.000000000000258 -205.00000000000009 9.000000000000004
    vertex -8.000000000000266 -205.00000000000009 0.9999999790221878
    vertex -13.000000000000258 -205.00000000000009 8.999999999999979
  endloop
endfacet
facet normal -5.700515365232371e-15 -1.875169528036988e-16 1.0
  outer loop
    vertex -13.000000000000258 -205.00000000000009 8.999999999999979
    vertex -13.00000000000019 -241.00000000000006 8.999999999999975
    vertex -8.000000000000258 -205.00000000000009 9.000000000000004
  endloop
endfacet
facet normal -5.700515365232371e-15 -1.875169528036988e-16 1.0
  outer loop
    vertex -13.00000000000019 -242.00000000000006 8.999999999999975
    vertex -8.000000000000258 -205.00000000000009 9.000000000000004
    vertex -13.00000000000019 -241.00000000000006 8.999999999999975
  endloop
endfacet
facet normal -5.700515365232371e-15 -1.875169528036988e-16 1.0
  outer loop
    vertex -13.000000000000181 -244.00000000000006 8.999999999999975
    vertex -8.000000000000258 -205.00000000000009 9.000000000000004
    vertex -13.00000000000019 -242.00000000000006 8.999999999999975
  endloop
endfacet
facet normal -5.700515365232371e-15 -1.875169528036988e-16 1.0
  outer loop
    vertex -13.00000000000019 -245.00000000000017 8.999999999999966
    vertex -8.000000000000188 -245.00000000000006 9.000000000000004
    vertex -13.000000000000181 -244.00000000000006 8.999999999999975
  endloop
endfacet
facet normal -5.700515365232371e-15 -1.875169528036988e-16 1.0
  outer loop
    vertex -8.000000000000258 -205.00000000000009 9.000000000000004
    vertex -13.000000000000181 -244.00000000000006 8.999999999999975
    vertex -8.000000000000188 -245.00000000000006 9.000000000000004
  endloop
endfacet
facet normal -1.0 -4.135950841070214e-15 -3.2899608963059333e-15
  outer loop
    vertex -20.00000000000019 -241.0000000000001 8.999999999999952
    vertex -20.00000000000017 -241.0000000000001 0.9999999999999527
    vertex -20.00000000000019 -242.00000000000009 8.999999999999952
  endloop
endfacet
facet normal -1.0 -4.135950841070214e-15 -3.2899608963059333e-15
  outer loop
    vertex -20.000000000000156 -242.00000000000009 0.9999999999999527
    vertex -20.00000000000019 -242.00000000000009 8.999999999999952
    vertex -20.00000000000017 -241.0000000000001 0.9999999999999527
  endloop
endfacet
facet normal -3.222818837197598e-15 -7.384195893926461e-31 1.0
  outer loop
    vertex -20.00000000000019 -241.0000000000001 8.999999999999952
    vertex -20.00000000000019 -242.00000000000009 8.999999999999952
    vertex -13.00000000000019 -241.00000000000006 8.999999999999975
  endloop
endfacet
facet normal -3.222818837197598e-15 -7.384195893926461e-31 1.0
  outer loop
    vertex -13.00000000000019 -242.00000000000006 8.999999999999975
    vertex -13.00000000000019 -241.00000000000006 8.999999999999975
    vertex -20.00000000000019 -242.00000000000009 8.999999999999952
  endloop
endfacet
facet normal -1.1884144462166e-14 -4.229949723821803e-15 1.0
  outer loop
    vertex -20.00000000000018 -244.00000000000037 8.999999999999888
    vertex -20.00000000000018 -245.00000000000037 8.999999999999888
    vertex -13.000000000000181 -244.00000000000006 8.999999999999975
  endloop
endfacet
facet normal -1.1884144462166e-14 -4.229949723821803e-15 1.0
  outer loop
    vertex -13.00000000000019 -245.00000000000017 8.999999999999966
    vertex -13.000000000000181 -244.00000000000006 8.999999999999975
    vertex -20.00000000000018 -245.00000000000037 8.999999999999888
  endloop
endfacet
facet normal -1.0 -3.524958103184583e-15 -2.114974861910534e-15
  outer loop
    vertex -13.00000000000019 -242.00000000000006 8.999999999999975
    vertex -13.000000000000185 -242.00000000000009 6.999999999999919
    vertex -13.000000000000181 -244.00000000000006 8.999999999999975
  endloop
endfacet
facet normal -1.0 -3.524958103184583e-15 -2.114974861910534e-15
  outer loop
    vertex -13.00000000000018 -244.00000000000037 6.999999999999902
    vertex -13.000000000000181 -244.00000000000006 8.999999999999975
    vertex -13.000000000000185 -242.00000000000009 6.999999999999919
  endloop
endfacet
facet normal -2.1711000155425364e-09 -3.9344576675400777e-10 -1.0
  outer loop
    vertex -13.000000000000266 -205.00000000000009 0.9999999790221615
    vertex -8.000000000000266 -205.00000000000009 0.9999999790221878
    vertex -13.00000000000017 -241.00000000000006 0.9999999999999744
  endloop
endfacet
facet normal -2.1711000155425364e-09 -3.9344576675400777e-10 -1.0
  outer loop
    vertex -13.00000000000016 -242.00000000000006 0.9999999999999744
    vertex -13.00000000000017 -241.00000000000006 0.9999999999999744
    vertex -8.000000000000266 -205.00000000000009 0.9999999790221878
  endloop
endfacet
facet normal -2.1711000155425364e-09 -3.9344576675400777e-10 -1.0
  outer loop
    vertex -13.000000000000123 -244.00000000000006 0.9999999999999742
    vertex -13.00000000000016 -242.00000000000006 0.9999999999999744
    vertex -8.000000000000266 -205.00000000000009 0.9999999790221878
  endloop
endfacet
facet normal -2.1711000155425364e-09 -3.9344576675400777e-10 -1.0
  outer loop
    vertex -13.000000000000117 -245.00000000000006 0.999999979022162
    vertex -13.000000000000123 -244.00000000000006 0.9999999999999742
    vertex -8.000000000000266 -205.00000000000009 0.9999999790221878
  endloop
endfacet
facet normal -2.1711000155425364e-09 -3.9344576675400777e-10 -1.0
  outer loop
    vertex -8.000000000000028 -245.00000000000006 0.9999999790221878
    vertex -13.000000000000117 -245.00000000000006 0.999999979022162
    vertex -8.000000000000266 -205.00000000000009 0.9999999790221878
  endloop
endfacet
facet normal 3.096927476369567e-15 3.4503087982114777e-29 -1.0
  outer loop
    vertex -20.00000000000017 -241.0000000000001 0.9999999999999527
    vertex -13.00000000000017 -241.00000000000006 0.9999999999999744
    vertex -20.000000000000156 -242.00000000000009 0.9999999999999527
  endloop
endfacet
facet normal 3.096927476369567e-15 3.4503087982114777e-29 -1.0
  outer loop
    vertex -13.00000000000016 -242.00000000000006 0.9999999999999744
    vertex -20.000000000000156 -242.00000000000009 0.9999999999999527
    vertex -13.00000000000017 -241.00000000000006 0.9999999999999744
  endloop
endfacet
facet normal -1.4984025979322273e-09 1.0488906309474803e-08 -1.0
  outer loop
    vertex -20.00000000000012 -244.00000000000037 0.9999999999998864
    vertex -13.000000000000123 -244.00000000000006 0.9999999999999742
    vertex -20.000000000000036 -245.00000000000037 0.9999999999998861
  endloop
endfacet
facet normal -1.4984025979322273e-09 1.0488906309474803e-08 -1.0
  outer loop
    vertex -13.000000000000117 -245.00000000000006 0.999999979022162
    vertex -20.000000000000036 -245.00000000000037 0.9999999999998861
    vertex -13.000000000000123 -244.00000000000006 0.9999999999999742
  endloop
endfacet
facet normal -1.0 -6.34492458573278e-14 -6.344924585732769e-15
  outer loop
    vertex -20.00000000000011 -244.00000000000037 2.9999999999998863
    vertex -20.00000000000012 -244.00000000000037 0.9999999999998864
    vertex -20.00000000000007 -245.00000000000037 2.9999999999998863
  endloop
endfacet
facet normal -1.0 -6.34492458573278e-14 -6.344924585732769e-15
  outer loop
    vertex -20.000000000000036 -245.00000000000037 0.9999999999998861
    vertex -20.00000000000007 -245.00000000000037 2.9999999999998863
    vertex -20.00000000000012 -244.00000000000037 0.9999999999998864
  endloop
endfacet
facet normal -1.0 -5.63993296509574e-15 -1.5509815654013473e-14
  outer loop
    vertex -20.00000000000018 -244.00000000000037 8.999999999999888
    vertex -20.000000000000156 -244.00000000000037 6.999999999999897
    vertex -20.00000000000018 -245.00000000000037 8.999999999999888
  endloop
endfacet
facet normal -1.0 -5.63993296509574e-15 -1.5509815654013473e-14
  outer loop
    vertex -20.000000000000142 -245.00000000000037 6.999999999999888
    vertex -20.00000000000018 -245.00000000000037 8.999999999999888
    vertex -20.000000000000156 -244.00000000000037 6.999999999999897
  endloop
endfacet
facet normal -2.248325819306077e-14 1.0 7.708545666191959e-14
  outer loop
    vertex -20.00000000000012 -244.00000000000037 0.9999999999998864
    vertex -20.00000000000011 -244.00000000000037 2.9999999999998863
    vertex -13.000000000000123 -244.00000000000006 0.9999999999999742
  endloop
endfacet
facet normal -2.248325819306077e-14 1.0 7.708545666191959e-14
  outer loop
    vertex -17.00000000000011 -244.00000000000037 2.9999999999999094
    vertex -13.000000000000123 -244.00000000000006 0.9999999999999742
    vertex -20.00000000000011 -244.00000000000037 2.9999999999998863
  endloop
endfacet
facet normal -2.248325819306077e-14 1.0 7.708545666191959e-14
  outer loop
    vertex -13.00000000000014 -244.00000000000037 2.9999999999999467
    vertex -13.000000000000123 -244.00000000000006 0.9999999999999742
    vertex -17.00000000000011 -244.00000000000037 2.9999999999999094
  endloop
endfacet
facet normal 9.253015020860357e-15 -1.762479051590634e-16 -1.0
  outer loop
    vertex -17.000000000000142 -242.00000000000009 2.9999999999999094
    vertex -13.000000000000174 -242.00000000000009 2.9999999999999463
    vertex -17.00000000000011 -244.00000000000037 2.9999999999999094
  endloop
endfacet
facet normal 9.253015020860357e-15 -1.762479051590634e-16 -1.0
  outer loop
    vertex -13.00000000000014 -244.00000000000037 2.9999999999999467
    vertex -17.00000000000011 -244.00000000000037 2.9999999999999094
    vertex -13.000000000000174 -242.00000000000009 2.9999999999999463
  endloop
endfacet
facet normal 3.8774539135033826e-15 -7.754907827005672e-15 1.0
  outer loop
    vertex -17.00000000000016 -242.00000000000009 6.999999999999933
    vertex -17.000000000000156 -244.00000000000037 6.999999999999919
    vertex -13.000000000000185 -242.00000000000009 6.999999999999919
  endloop
endfacet
facet normal 3.8774539135033826e-15 -7.754907827005672e-15 1.0
  outer loop
    vertex -13.00000000000018 -244.00000000000037 6.999999999999902
    vertex -13.000000000000185 -242.00000000000009 6.999999999999919
    vertex -17.000000000000156 -244.00000000000037 6.999999999999919
  endloop
endfacet
facet normal -2.2483258193059415e-14 1.0 -7.708545666192012e-14
  outer loop
    vertex -13.00000000000018 -244.00000000000037 6.999999999999902
    vertex -17.000000000000156 -244.00000000000037 6.999999999999919
    vertex -13.000000000000181 -244.00000000000006 8.999999999999975
  endloop
endfacet
facet normal -2.2483258193059415e-14 1.0 -7.708545666192012e-14
  outer loop
    vertex -20.00000000000018 -244.00000000000037 8.999999999999888
    vertex -13.000000000000181 -244.00000000000006 8.999999999999975
    vertex -17.000000000000156 -244.00000000000037 6.999999999999919
  endloop
endfacet
facet normal -2.2483258193059415e-14 1.0 -7.708545666192012e-14
  outer loop
    vertex -17.000000000000156 -244.00000000000037 6.999999999999919
    vertex -20.000000000000156 -244.00000000000037 6.999999999999897
    vertex -20.00000000000018 -244.00000000000037 8.999999999999888
  endloop
endfacet
facet normal 3.570605042650578e-15 -1.0 4.2094621108693847e-29
  outer loop
    vertex -13.00000000000016 -242.00000000000006 0.9999999999999744
    vertex -17.000000000000142 -242.00000000000009 2.9999999999999094
    vertex -20.000000000000156 -242.00000000000009 0.9999999999999527
  endloop
endfacet
facet normal 3.570605042650578e-15 -1.0 4.2094621108693847e-29
  outer loop
    vertex -20.00000000000019 -242.00000000000009 8.999999999999952
    vertex -20.000000000000156 -242.00000000000009 0.9999999999999527
    vertex -17.000000000000142 -242.00000000000009 2.9999999999999094
  endloop
endfacet
facet normal 3.570605042650578e-15 -1.0 4.2094621108693847e-29
  outer loop
    vertex -17.00000000000016 -242.00000000000009 6.999999999999933
    vertex -20.00000000000019 -242.00000000000009 8.999999999999952
    vertex -17.000000000000142 -242.00000000000009 2.9999999999999094
  endloop
endfacet
facet normal 3.570605042650578e-15 -1.0 4.2094621108693847e-29
  outer loop
    vertex -13.000000000000185 -242.00000000000009 6.999999999999919
    vertex -13.00000000000019 -242.00000000000006 8.999999999999975
    vertex -17.00000000000016 -242.00000000000009 6.999999999999933
  endloop
endfacet
facet normal 3.570605042650578e-15 -1.0 4.2094621108693847e-29
  outer loop
    vertex -20.00000000000019 -242.00000000000009 8.999999999999952
    vertex -17.00000000000016 -242.00000000000009 6.999999999999933
    vertex -13.00000000000019 -242.00000000000006 8.999999999999975
  endloop
endfacet
facet normal 3.570605042650578e-15 -1.0 4.2094621108693847e-29
  outer loop
    vertex -17.000000000000142 -242.00000000000009 2.9999999999999094
    vertex -13.00000000000016 -242.00000000000006 0.9999999999999744
    vertex -13.000000000000174 -242.00000000000009 2.9999999999999463
  endloop
endfacet
facet normal 9.399888275159664e-15 2.8199664825479823e-15 -1.0
  outer loop
    vertex -20.000000000000156 -244.00000000000037 6.999999999999897
    vertex -17.000000000000156 -244.00000000000037 6.999999999999919
    vertex -20.000000000000142 -245.00000000000037 6.999999999999888
  endloop
endfacet
facet normal 9.399888275159664e-15 2.8199664825479823e-15 -1.0
  outer loop
    vertex -17.00000000000015 -245.00000000000037 6.999999999999923
    vertex -20.000000000000142 -245.00000000000037 6.999999999999888
    vertex -17.000000000000156 -244.00000000000037 6.999999999999919
  endloop
endfacet
facet normal -1.0 -1.038573021621196e-14 -1.0809871516433608e-14
  outer loop
    vertex -17.00000000000016 -242.00000000000009 6.999999999999933
    vertex -17.000000000000142 -242.00000000000009 2.9999999999999094
    vertex -17.000000000000156 -244.00000000000037 6.999999999999919
  endloop
endfacet
facet normal -1.0 -1.038573021621196e-14 -1.0809871516433608e-14
  outer loop
    vertex -17.00000000000011 -244.00000000000037 2.9999999999999094
    vertex -17.000000000000156 -244.00000000000037 6.999999999999919
    vertex -17.000000000000142 -242.00000000000009 2.9999999999999094
  endloop
endfacet
facet normal -1.0 -1.038573021621196e-14 -1.0809871516433608e-14
  outer loop
    vertex -17.00000000000015 -245.00000000000037 6.999999999999923
    vertex -17.000000000000156 -244.00000000000037 6.999999999999919
    vertex -17.00000000000011 -244.00000000000037 2.9999999999999094
  endloop
endfacet
facet normal -1.0 -1.038573021621196e-14 -1.0809871516433608e-14
  outer loop
    vertex -17.00000000000008 -245.0000000000003 2.999999999999943
    vertex -17.00000000000015 -245.00000000000037 6.999999999999923
    vertex -17.00000000000011 -244.00000000000037 2.9999999999999094
  endloop
endfacet
facet normal -1.3336091490382905e-14 1.674355099012772e-14 1.0
  outer loop
    vertex -20.00000000000011 -244.00000000000037 2.9999999999998863
    vertex -20.00000000000007 -245.00000000000037 2.9999999999998863
    vertex -17.00000000000011 -244.00000000000037 2.9999999999999094
  endloop
endfacet
facet normal -1.3336091490382905e-14 1.674355099012772e-14 1.0
  outer loop
    vertex -17.00000000000008 -245.0000000000003 2.999999999999943
    vertex -17.00000000000011 -244.00000000000037 2.9999999999999094
    vertex -20.00000000000007 -245.00000000000037 2.9999999999998863
  endloop
endfacet
facet normal -6.445637674395196e-15 1.0 -1.585827070105006e-29
  outer loop
    vertex -20.00000000000017 -241.0000000000001 0.9999999999999527
    vertex -20.00000000000019 -241.0000000000001 8.999999999999952
    vertex -13.00000000000017 -241.00000000000006 0.9999999999999744
  endloop
endfacet
facet normal -6.445637674395196e-15 1.0 -1.585827070105006e-29
  outer loop
    vertex -13.00000000000019 -241.00000000000006 8.999999999999975
    vertex -13.00000000000017 -241.00000000000006 0.9999999999999744
    vertex -20.00000000000019 -241.0000000000001 8.999999999999952
  endloop
endfacet
facet normal 1.0 4.2299497238218545e-15 8.459899447643693e-15
  outer loop
    vertex -8.000000000000266 -205.00000000000009 0.9999999790221878
    vertex -8.000000000000258 -205.00000000000009 9.000000000000004
    vertex -8.000000000000028 -245.00000000000006 0.9999999790221878
  endloop
endfacet
facet normal 1.0 4.2299497238218545e-15 8.459899447643693e-15
  outer loop
    vertex -8.000000000000188 -245.00000000000006 9.000000000000004
    vertex -8.000000000000028 -245.00000000000006 0.9999999790221878
    vertex -8.000000000000258 -205.00000000000009 9.000000000000004
  endloop
endfacet
facet normal -1.0 -1.762479051592315e-14 -7.754907827008419e-15
  outer loop
    vertex -13.00000000000016 -242.00000000000006 0.9999999999999744
    vertex -13.000000000000123 -244.00000000000006 0.9999999999999742
    vertex -13.000000000000174 -242.00000000000009 2.9999999999999463
  endloop
endfacet
facet normal -1.0 -1.762479051592315e-14 -7.754907827008419e-15
  outer loop
    vertex -13.00000000000014 -244.00000000000037 2.9999999999999467
    vertex -13.000000000000174 -242.00000000000009 2.9999999999999463
    vertex -13.000000000000123 -244.00000000000006 0.9999999999999742
  endloop
endfacet
facet normal -1.0 -8.812395262583815e-16 -7.049916174018401e-16
  outer loop
    vertex -13.000000000000258 -205.00000000000009 8.999999999999979
    vertex -13.000000000000266 -205.00000000000009 0.9999999790221615
    vertex -13.00000000000019 -241.00000000000006 8.999999999999975
  endloop
endfacet
facet normal -1.0 -8.812395262583815e-16 -7.049916174018401e-16
  outer loop
    vertex -13.00000000000017 -241.00000000000006 0.9999999999999744
    vertex -13.00000000000019 -241.00000000000006 8.999999999999975
    vertex -13.000000000000266 -205.00000000000009 0.9999999790221615
  endloop
endfacet
endsolid Robochera
